<?xml version="1.0" standalone="no"?>
<!DOCTYPE svg PUBLIC "-//W3C//DTD SVG 20010904//EN"
 "http://www.w3.org/TR/2001/REC-SVG-20010904/DTD/svg10.dtd">
<svg version="1.0" xmlns="http://www.w3.org/2000/svg"
 width="400.000000pt" height="400.000000pt" viewBox="0 0 400.000000 400.000000"
 preserveAspectRatio="xMidYMid meet">
<metadata>
Created by potrace 1.14, written by Peter Selinger 2001-2017
</metadata>
<g transform="translate(0.000000,400.000000) scale(0.100000,-0.100000)"
fill="#000000" stroke="none">
<path d="M0 3940 l0 -60 47 7 c35 5 44 3 38 -6 -5 -8 3 -7 23 3 23 12 60 16
140 16 59 0 112 4 118 10 6 6 33 6 74 0 86 -13 254 -12 309 1 26 6 47 6 50 1
10 -15 320 -26 776 -29 237 -1 491 -6 565 -11 143 -8 368 -7 378 2 11 12 23 6
32 -16 5 -13 9 -17 9 -8 1 18 69 42 77 28 4 -5 15 -8 25 -5 12 3 23 -2 29 -13
5 -10 21 -17 35 -17 13 0 22 3 19 8 -9 14 15 10 42 -7 22 -15 24 -15 18 0 -5
12 0 16 22 17 16 0 65 4 109 10 44 5 101 11 127 14 27 2 68 14 92 25 56 25 77
25 107 1 22 -18 26 -18 42 -4 15 15 19 15 37 -2 14 -13 20 -14 20 -5 0 9 7 7
23 -7 12 -11 36 -23 52 -27 22 -5 26 -4 15 4 -10 7 -12 12 -4 18 6 4 13 31 16
60 l5 52 -1733 0 -1734 0 0 -60z"/>
<path d="M3483 3952 c2 -26 6 -53 10 -59 4 -6 3 -15 -3 -18 -8 -5 -7 -11 1
-21 8 -10 8 -14 0 -14 -6 0 -11 -5 -11 -11 0 -6 11 -8 28 -5 15 3 54 8 87 11
33 4 111 13 173 21 62 8 130 14 150 14 76 0 82 6 82 71 l0 59 -260 0 -260 0 3
-48z m107 -22 c0 -5 -4 -10 -10 -10 -5 0 -10 5 -10 10 0 6 5 10 10 10 6 0 10
-4 10 -10z m145 -30 c-3 -5 -16 -10 -28 -10 -18 0 -19 2 -7 10 20 13 43 13 35
0z m82 4 c-3 -3 -12 -4 -19 -1 -8 3 -5 6 6 6 11 1 17 -2 13 -5z m-247 -19 c0
-8 -4 -15 -10 -15 -5 0 -10 7 -10 15 0 8 5 15 10 15 6 0 10 -7 10 -15z m267
-1 c-3 -3 -12 -4 -19 -1 -8 3 -5 6 6 6 11 1 17 -2 13 -5z m-177 -14 c0 -5 -9
-10 -20 -10 -11 0 -20 5 -20 10 0 6 9 10 20 10 11 0 20 -4 20 -10z m98 3 c-10
-2 -26 -2 -35 0 -10 3 -2 5 17 5 19 0 27 -2 18 -5z"/>
<path d="M3200 3909 c0 -5 5 -7 10 -4 6 3 10 8 10 11 0 2 -4 4 -10 4 -5 0 -10
-5 -10 -11z"/>
<path d="M2618 3843 c7 -3 16 -2 19 1 4 3 -2 6 -13 5 -11 0 -14 -3 -6 -6z"/>
<path d="M3821 3839 c-46 -4 -89 -10 -95 -12 -7 -3 -13 -35 -14 -77 l-3 -72
108 7 c59 4 114 8 121 8 6 0 12 10 13 21 0 12 2 47 4 79 3 66 17 61 -134 46z
m12 -84 c-3 -9 -8 -14 -10 -11 -3 3 -2 9 2 15 9 16 15 13 8 -4z"/>
<path d="M3986 3773 c0 -43 -2 -120 -5 -171 -5 -70 -3 -92 7 -92 9 0 12 41 12
170 0 94 -3 170 -7 170 -5 0 -8 -35 -7 -77z"/>
<path d="M3558 3807 l-78 -9 0 -71 0 -70 102 7 c56 4 105 9 110 12 4 3 8 36 8
75 l0 69 -32 -1 c-18 -1 -68 -6 -110 -12z"/>
<path d="M3435 3785 c-5 -1 -54 -11 -107 -20 -87 -16 -98 -20 -99 -39 -1 -11
-2 -36 -4 -54 l-3 -34 77 6 c42 3 94 7 116 8 l40 3 5 50 c5 53 2 86 -9 84 -3
0 -10 -2 -16 -4z"/>
<path d="M3176 3701 c-4 -5 -20 -13 -37 -16 -17 -4 -40 -16 -51 -27 l-20 -20
33 6 34 7 -25 -15 c-29 -17 -86 -21 -95 -6 -3 6 -11 10 -17 10 -7 0 -7 -4 1
-13 8 -11 -6 -20 -73 -45 -45 -18 -90 -32 -99 -32 -9 0 -18 -4 -21 -9 -3 -4
-44 -16 -92 -26 -73 -16 -87 -16 -95 -4 -7 11 -9 10 -10 -6 0 -11 -3 -15 -5
-9 -3 7 -18 9 -42 4 -41 -7 -62 -3 -62 11 0 6 4 8 8 5 5 -3 9 1 9 9 0 10 -6 9
-25 -5 -20 -16 -28 -17 -46 -8 -19 10 -20 10 -7 -6 12 -14 12 -19 1 -29 -8 -8
-11 -8 -7 -1 7 12 -16 38 -25 29 -15 -15 -50 -13 -56 3 -5 13 -8 10 -12 -13
-3 -17 -11 -30 -20 -30 -21 0 -24 -31 -4 -39 12 -5 15 -2 10 11 -5 16 -5 16 8
-1 8 -10 19 -15 24 -12 6 3 12 2 14 -4 2 -6 21 2 42 17 28 20 40 24 44 15 3
-10 7 -10 18 -1 8 6 23 9 34 6 12 -3 24 1 30 11 8 15 9 14 10 -4 0 -19 28 -54
42 -54 3 0 9 7 12 16 4 12 2 15 -9 10 -20 -7 -19 -4 4 22 10 12 24 22 32 22
10 0 10 -3 1 -12 -7 -7 -12 -17 -12 -22 0 -6 5 -5 12 2 7 7 26 12 42 13 17 0
25 3 19 6 -18 7 -16 23 2 23 8 0 15 -6 15 -12 1 -9 4 -8 13 2 19 24 80 51 92
39 12 -12 28 -12 20 1 -3 5 4 12 17 15 48 11 104 24 128 30 19 5 21 4 10 -4
-8 -5 -12 -13 -9 -16 11 -10 88 7 86 19 -1 6 10 11 26 11 15 -1 27 4 27 10 0
5 4 5 8 -2 6 -10 14 -9 34 1 25 13 27 13 31 -7 2 -12 6 6 7 41 2 34 3 67 4 74
1 15 -20 22 -28 9z m-599 -238 c-10 -22 -13 -24 -15 -9 -2 10 2 22 10 27 19
12 19 12 5 -18z m-170 -4 c-2 -10 -7 -22 -12 -26 -4 -5 -5 -2 -1 5 4 6 2 12
-3 12 -6 0 -11 6 -11 13 0 8 7 14 15 14 8 0 13 -8 12 -18z"/>
<path d="M3720 3602 l0 -59 38 -1 37 0 -35 13 -35 13 45 8 45 9 -40 6 -40 6
45 2 c33 1 41 4 30 11 -12 8 -11 10 7 10 12 0 23 -5 25 -11 4 -11 98 -24 98
-14 0 2 -15 9 -32 14 l-33 9 40 2 c32 1 36 3 20 10 -16 7 -17 9 -3 9 9 1 20 6
23 11 4 6 -37 10 -114 10 l-121 0 0 -58z m117 31 c-20 -2 -52 -2 -70 0 -17 2
0 4 38 4 39 0 53 -2 32 -4z"/>
<path d="M3533 3643 c-37 -3 -53 -8 -53 -18 0 -20 17 -27 24 -10 4 12 25 15
96 15 49 0 90 -4 90 -8 0 -4 -15 -7 -32 -6 -26 1 -27 0 -5 -3 26 -4 39 -23 15
-23 -6 0 -3 -6 7 -14 11 -8 24 -12 29 -8 5 3 1 9 -10 13 -13 5 -14 8 -4 8 10
1 15 11 15 31 l0 30 -60 -2 c-33 -1 -84 -3 -112 -5z"/>
<path d="M1368 3623 c7 -3 16 -2 19 1 4 3 -2 6 -13 5 -11 0 -14 -3 -6 -6z"/>
<path d="M3273 3623 c-29 -2 -53 -8 -53 -13 0 -19 13 -41 19 -32 9 15 71 26
71 13 0 -6 5 -11 11 -11 5 0 7 5 3 11 -5 9 10 10 55 5 51 -6 61 -5 55 6 -6 10
-4 10 9 -1 15 -12 17 -11 17 8 0 19 -5 21 -67 19 -38 -1 -92 -3 -120 -5z"/>
<path d="M2808 3613 c-50 -8 -29 -21 32 -20 33 0 60 4 60 9 0 4 -9 8 -19 8
-11 0 -25 2 -33 3 -7 2 -25 2 -40 0z"/>
<path d="M3563 3613 c9 -2 23 -2 30 0 6 3 -1 5 -18 5 -16 0 -22 -2 -12 -5z"/>
<path d="M2700 3600 c-9 -6 -10 -10 -3 -10 6 0 15 5 18 10 8 12 4 12 -15 0z"/>
<path d="M2735 3600 c-3 -5 1 -10 9 -10 9 0 16 5 16 10 0 6 -4 10 -9 10 -6 0
-13 -4 -16 -10z"/>
<path d="M3916 3571 c-4 -5 3 -7 14 -4 23 6 26 13 6 13 -8 0 -17 -4 -20 -9z"/>
<path d="M1748 3533 c7 -3 16 -2 19 1 4 3 -2 6 -13 5 -11 0 -14 -3 -6 -6z"/>
<path d="M2086 3532 c-3 -4 8 -6 25 -4 16 2 37 -2 46 -9 14 -12 16 -12 11 1
-5 17 -73 27 -82 12z"/>
<path d="M1698 3523 c7 -3 16 -2 19 1 4 3 -2 6 -13 5 -11 0 -14 -3 -6 -6z"/>
<path d="M3163 3518 c-34 -11 -45 -28 -18 -28 9 0 15 -10 16 -27 l1 -28 8 25
8 25 2 -25 c1 -14 2 -28 1 -32 0 -5 4 -8 9 -8 6 0 10 25 10 55 0 30 -1 55 -2
54 -2 -1 -18 -6 -35 -11z"/>
<path d="M1940 3510 c-21 -7 -21 -8 -5 -9 11 0 27 4 35 9 18 11 5 11 -30 0z"/>
<path d="M3231 3483 c0 -31 2 -34 9 -18 5 11 9 16 9 10 1 -5 5 -4 10 3 10 17
72 31 134 32 40 0 49 -4 57 -22 8 -22 9 -22 9 5 l1 27 -115 0 -115 0 1 -37z"/>
<path d="M3480 3505 c0 -8 5 -15 10 -15 6 0 10 3 10 8 0 4 28 7 63 6 112 -1
128 -3 125 -17 -2 -7 1 -14 6 -15 5 -1 10 9 12 23 l3 25 -115 0 c-95 0 -114
-3 -114 -15z"/>
<path d="M3727 3458 c3 -83 5 -85 12 -13 l6 60 95 0 c52 0 98 -4 102 -10 4 -6
8 -2 8 8 0 15 -12 17 -112 17 l-113 0 2 -62z"/>
<path d="M1560 3500 c-20 -6 -21 -8 -5 -8 11 0 31 4 45 8 20 6 21 8 5 8 -11 0
-31 -4 -45 -8z"/>
<path d="M3888 3483 c7 -3 16 -2 19 1 4 3 -2 6 -13 5 -11 0 -14 -3 -6 -6z"/>
<path d="M3025 3471 l20 -8 -20 -5 c-16 -5 -14 -6 8 -7 15 0 27 3 27 8 0 10
-25 21 -43 20 -7 0 -3 -4 8 -8z"/>
<path d="M3970 3440 c0 -6 5 -8 10 -5 6 3 10 2 10 -4 0 -5 -6 -12 -12 -14 -8
-3 -5 -6 5 -6 12 -1 17 5 15 16 -3 19 -28 31 -28 13z"/>
<path d="M3687 3427 c3 -6 -3 -16 -13 -24 -19 -14 -19 -14 1 -11 32 5 51 45
20 45 -8 0 -11 -5 -8 -10z"/>
<path d="M2180 3411 c0 -5 5 -13 10 -16 6 -3 10 -2 10 4 0 5 -4 13 -10 16 -5
3 -10 2 -10 -4z"/>
<path d="M2193 3374 c-22 -46 -9 -58 14 -13 10 19 13 20 13 6 0 -11 5 -17 13
-14 6 2 20 -2 30 -11 15 -14 17 -14 17 0 0 9 -12 23 -26 33 -15 10 -23 22 -20
31 3 8 0 14 -7 14 -7 0 -22 -21 -34 -46z"/>
<path d="M2249 3403 c-13 -16 -12 -17 3 -5 9 8 23 10 29 6 8 -4 9 -3 5 4 -10
17 -21 15 -37 -5z"/>
<path d="M3226 3401 c-3 -5 5 -8 18 -7 13 0 22 4 19 9 -6 10 -31 9 -37 -2z"/>
<path d="M3480 3399 c0 -5 9 -9 20 -9 11 0 20 2 20 4 0 2 -9 6 -20 9 -11 3
-20 1 -20 -4z"/>
<path d="M2155 3390 c3 -5 8 -10 11 -10 2 0 4 5 4 10 0 6 -5 10 -11 10 -5 0
-7 -4 -4 -10z"/>
<path d="M3403 3393 c9 -2 23 -2 30 0 6 3 -1 5 -18 5 -16 0 -22 -2 -12 -5z"/>
<path d="M2965 3361 c-11 -5 35 -6 102 -3 l122 5 4 -44 4 -44 1 48 2 47 -107
-1 c-60 0 -117 -4 -128 -8z"/>
<path d="M3230 3343 c0 -20 3 -24 9 -14 6 9 18 11 35 7 15 -4 26 -2 26 4 0 6
29 10 70 10 40 0 70 -4 70 -10 0 -19 16 -10 17 10 2 19 -4 20 -113 20 l-114 0
0 -27z"/>
<path d="M3481 3347 c0 -12 3 -16 6 -9 3 7 22 12 46 12 50 0 46 5 -10 13 -39
5 -43 3 -42 -16z"/>
<path d="M2117 3352 c-9 -2 -15 -8 -12 -13 4 -5 1 -9 -4 -9 -20 0 -11 -19 11
-26 13 -4 29 -14 35 -23 12 -14 12 -14 6 4 -4 11 -14 26 -22 32 -14 11 -14 14
-1 22 18 12 11 19 -13 13z"/>
<path d="M3595 3350 c11 -5 33 -9 48 -9 16 -1 37 -6 48 -11 16 -9 19 -7 19 10
0 18 -6 20 -67 19 -47 0 -62 -3 -48 -9z"/>
<path d="M3730 3295 c0 -36 4 -65 8 -65 5 0 7 19 5 43 -4 59 27 77 126 69 49
-3 71 -1 71 7 0 7 -33 11 -105 11 l-105 0 0 -65z"/>
<path d="M3974 3344 c3 -9 6 -25 7 -37 1 -20 2 -20 9 3 13 39 11 50 -6 50 -11
0 -14 -5 -10 -16z"/>
<path d="M2060 3335 c0 -8 4 -15 10 -15 5 0 7 7 4 15 -4 8 -8 15 -10 15 -2 0
-4 -7 -4 -15z"/>
<path d="M2725 3338 c-22 -12 -35 -28 -35 -42 0 -6 5 -5 11 1 12 12 39 6 52
-11 5 -6 7 1 4 17 -5 30 10 37 20 10 14 -36 31 -46 53 -30 11 7 17 17 12 22
-4 5 -1 5 6 1 15 -9 15 -11 -3 -29 -12 -13 -11 -15 9 -13 27 1 29 33 3 48 -19
10 -49 7 -58 -5 -3 -5 -9 -2 -12 7 -5 12 0 16 19 16 14 0 22 4 19 10 -8 13
-75 12 -100 -2z m15 -18 c0 -5 -5 -10 -11 -10 -5 0 -7 5 -4 10 3 6 8 10 11 10
2 0 4 -4 4 -10z"/>
<path d="M1998 3316 c-20 -10 -29 -11 -38 -2 -10 8 -11 7 -8 -4 3 -8 14 -14
24 -12 57 10 74 15 74 23 0 13 -21 11 -52 -5z"/>
<path d="M1855 3310 l-30 -8 33 -1 c17 0 32 4 32 9 0 6 -1 9 -2 9 -2 -1 -16
-5 -33 -9z"/>
<path d="M2600 3275 c-7 -9 -10 -18 -6 -22 3 -3 6 -1 6 5 0 6 7 9 15 6 11 -5
13 -2 9 10 -8 20 -8 20 -24 1z"/>
<path d="M2463 3259 c-1 -10 2 -19 8 -19 11 0 12 27 1 34 -4 2 -9 -4 -9 -15z"/>
<path d="M2500 3261 c0 -5 7 -11 14 -14 10 -4 13 -1 9 9 -6 15 -23 19 -23 5z"/>
<path d="M2958 3263 c6 -2 18 -2 25 0 6 3 1 5 -13 5 -14 0 -19 -2 -12 -5z"/>
<path d="M1780 3250 c8 -5 22 -9 30 -9 10 0 8 3 -5 9 -27 12 -43 12 -25 0z"/>
<path d="M950 3229 c0 -5 5 -7 10 -4 6 3 10 8 10 11 0 2 -4 4 -10 4 -5 0 -10
-5 -10 -11z"/>
<path d="M1835 3230 c3 -5 8 -10 11 -10 2 0 4 5 4 10 0 6 -5 10 -11 10 -5 0
-7 -4 -4 -10z"/>
<path d="M1860 3230 c0 -6 7 -10 15 -10 8 0 15 2 15 4 0 2 -7 6 -15 10 -8 3
-15 1 -15 -4z"/>
<path d="M2490 3223 c0 -11 7 -20 15 -20 8 0 15 4 15 7 0 4 -7 13 -15 20 -12
10 -15 9 -15 -7z"/>
<path d="M2550 3230 c-8 -5 -11 -13 -6 -17 5 -4 11 -3 13 4 2 7 11 9 19 6 8
-3 14 0 14 6 0 13 -20 14 -40 1z"/>
<path d="M2950 3233 c0 -7 41 -11 106 -11 58 -1 114 -4 124 -7 10 -3 21 -1 25
5 3 5 0 10 -7 10 -7 0 -66 3 -130 7 -78 4 -118 2 -118 -4z"/>
<path d="M3230 3221 c0 -7 39 -11 115 -11 63 0 115 4 115 8 0 4 -52 9 -115 11
-77 2 -115 -1 -115 -8z"/>
<path d="M3480 3218 c0 -5 53 -7 118 -7 133 2 124 7 -21 11 -53 2 -97 0 -97
-4z"/>
<path d="M1785 3210 c-3 -6 1 -7 9 -4 18 7 21 14 7 14 -6 0 -13 -4 -16 -10z"/>
<path d="M2387 3207 c-3 -8 -1 -20 4 -28 6 -10 9 -7 9 14 0 29 -5 35 -13 14z"/>
<path d="M3734 3208 c-3 -4 39 -7 93 -7 106 2 100 6 -15 11 -41 2 -76 0 -78
-4z"/>
<path d="M3968 3203 c6 -2 18 -2 25 0 6 3 1 5 -13 5 -14 0 -19 -2 -12 -5z"/>
<path d="M985 3189 c-9 -14 -2 -20 14 -10 8 6 9 11 3 15 -6 3 -14 1 -17 -5z"/>
<path d="M2882 3180 c-7 -11 -10 -20 -6 -20 7 0 34 27 34 34 0 13 -16 5 -28
-14z"/>
<path d="M1060 3180 c0 -5 5 -10 10 -10 6 0 10 5 10 10 0 6 -4 10 -10 10 -5 0
-10 -4 -10 -10z"/>
<path d="M1680 3165 c0 -5 5 -17 10 -25 5 -8 10 -10 10 -5 0 6 -5 17 -10 25
-5 8 -10 11 -10 5z"/>
<path d="M1056 3145 c4 -8 8 -15 10 -15 2 0 4 7 4 15 0 8 -4 15 -10 15 -5 0
-7 -7 -4 -15z"/>
<path d="M1097 3140 c4 -14 7 -40 7 -57 0 -20 4 -33 12 -33 23 0 22 14 -2 65
-13 28 -21 39 -17 25z"/>
<path d="M2713 3145 c-10 -10 -9 -16 1 -24 16 -13 42 11 31 29 -8 13 -17 12
-32 -5z"/>
<path d="M2770 3150 c0 -5 4 -10 9 -10 6 0 13 5 16 10 3 6 -1 10 -9 10 -9 0
-16 -4 -16 -10z"/>
<path d="M2550 3124 c0 -16 9 -18 28 -5 10 6 9 10 -7 14 -14 3 -21 0 -21 -9z"/>
<path d="M1230 3119 c0 -5 5 -7 10 -4 6 3 10 8 10 11 0 2 -4 4 -10 4 -5 0 -10
-5 -10 -11z"/>
<path d="M2055 3120 c-3 -5 -1 -10 4 -10 6 0 11 5 11 10 0 6 -2 10 -4 10 -3 0
-8 -4 -11 -10z"/>
<path d="M2881 3121 c-11 -7 -9 -11 9 -21 27 -15 56 4 30 20 -18 12 -21 12
-39 1z"/>
<path d="M1071 3104 c0 -11 3 -14 6 -6 3 7 2 16 -1 19 -3 4 -6 -2 -5 -13z"/>
<path d="M1210 3111 c0 -5 -11 -8 -25 -6 -28 3 -32 -12 -12 -39 11 -15 15 -15
24 -4 13 16 27 58 19 58 -3 0 -6 -4 -6 -9z"/>
<path d="M2175 3090 c6 -29 5 -33 -6 -22 -21 19 -31 14 -12 -7 22 -27 45 -16
37 18 -10 41 -27 52 -19 11z"/>
<path d="M2685 3110 c3 -5 8 -10 11 -10 2 0 4 5 4 10 0 6 -5 10 -11 10 -5 0
-7 -4 -4 -10z"/>
<path d="M1255 3100 c3 -5 11 -10 16 -10 6 0 7 5 4 10 -3 6 -11 10 -16 10 -6
0 -7 -4 -4 -10z"/>
<path d="M2988 3103 c12 -2 30 -2 40 0 9 3 -1 5 -23 4 -22 0 -30 -2 -17 -4z"/>
<path d="M2340 3075 c-16 -29 -31 -34 -118 -38 -54 -3 -67 -7 -90 -32 l-27
-28 33 23 c33 22 39 22 186 17 83 -3 161 -9 171 -13 15 -5 17 -4 9 5 -6 7 -42
16 -80 21 l-69 8 58 -1 c33 -1 56 2 54 8 -2 5 -12 10 -23 11 -10 0 -36 1 -57
2 -33 2 -38 5 -32 22 9 28 1 25 -15 -5z"/>
<path d="M2100 3070 c0 -5 5 -10 10 -10 6 0 10 5 10 10 0 6 -4 10 -10 10 -5 0
-10 -4 -10 -10z"/>
<path d="M2508 3051 c-14 -16 -14 -20 -2 -25 8 -3 14 -11 14 -18 1 -7 29 -26
63 -42 88 -42 97 -46 97 -40 0 2 -12 9 -26 14 -14 6 -22 14 -19 20 4 6 -1 7
-11 3 -12 -4 -15 -3 -10 6 12 19 58 33 69 22 7 -7 15 -7 24 0 18 16 16 32 -3
25 -13 -5 -15 -2 -11 16 6 22 6 22 -13 -2 -18 -23 -20 -23 -20 -5 -1 17 -3 17
-12 -5 -11 -25 -11 -25 -15 -2 -4 20 -6 21 -20 7 -14 -14 -17 -14 -29 2 -10
12 -12 13 -9 3 3 -8 1 -22 -5 -30 -8 -12 -12 -11 -30 8 -14 15 -19 29 -15 42
8 25 4 25 -17 1z m102 -61 c-6 -12 -16 -17 -26 -13 -12 4 -11 8 8 18 13 7 24
13 26 14 1 1 -2 -8 -8 -19z"/>
<path d="M2840 3056 c0 -9 5 -16 10 -16 6 0 10 4 10 9 0 6 -4 13 -10 16 -5 3
-10 -1 -10 -9z"/>
<path d="M2904 3061 c4 -5 73 -10 155 -10 82 -1 236 -8 343 -16 227 -17 298
-19 298 -5 0 15 -30 19 -260 30 -268 13 -543 13 -536 1z"/>
<path d="M1463 3026 c0 -23 2 -24 21 -14 16 9 18 12 6 16 -8 3 -18 9 -21 15
-4 5 -6 -2 -6 -17z"/>
<path d="M990 3036 c0 -2 7 -9 15 -16 12 -10 15 -10 15 4 0 9 -7 16 -15 16 -8
0 -15 -2 -15 -4z"/>
<path d="M1410 3034 c0 -3 6 -12 14 -19 12 -12 15 -12 20 1 9 23 8 24 -14 24
-11 0 -20 -3 -20 -6z"/>
<path d="M2735 3030 c3 -5 11 -10 16 -10 6 0 7 5 4 10 -3 6 -11 10 -16 10 -6
0 -7 -4 -4 -10z"/>
<path d="M2776 3032 c-3 -5 3 -17 14 -27 23 -21 26 -9 6 18 -8 10 -17 14 -20
9z"/>
<path d="M2815 3030 c3 -5 8 -10 11 -10 2 0 4 5 4 10 0 6 -5 10 -11 10 -5 0
-7 -4 -4 -10z"/>
<path d="M2881 3031 c-8 -5 -9 -11 -3 -15 14 -8 43 4 36 15 -7 11 -15 11 -33
0z"/>
<path d="M1645 3020 c4 -6 11 -7 17 -4 7 4 8 2 4 -4 -4 -6 -13 -9 -20 -6 -10
4 -12 -2 -9 -20 3 -15 12 -26 21 -26 30 0 1 -14 -30 -14 -19 -1 -33 -7 -35
-16 -4 -13 -3 -13 5 -1 9 12 16 11 51 -3 53 -21 54 -21 47 9 -7 28 -4 30 23
13 20 -12 51 -5 51 13 0 6 -7 9 -14 6 -11 -4 -13 -1 -10 11 5 14 2 13 -12 -3
-15 -18 -16 -18 -10 -2 5 15 2 17 -14 12 -11 -4 -20 -3 -19 2 4 18 -14 43 -33
43 -10 0 -16 -5 -13 -10z"/>
<path d="M1728 3008 c5 -5 16 -8 23 -6 8 3 3 7 -10 11 -17 4 -21 3 -13 -5z"/>
<path d="M3758 3013 c12 -2 30 -2 40 0 9 3 -1 5 -23 4 -22 0 -30 -2 -17 -4z"/>
<path d="M2730 2994 c0 -8 5 -12 10 -9 6 4 8 11 5 16 -9 14 -15 11 -15 -7z"/>
<path d="M2827 3003 c-14 -14 -6 -19 23 -15 16 2 27 8 24 13 -6 11 -38 12 -47
2z"/>
<path d="M2929 2991 c7 -12 19 -25 27 -28 26 -10 22 1 -9 26 -29 24 -30 24
-18 2z"/>
<path d="M2765 2990 c3 -5 8 -10 11 -10 2 0 4 5 4 10 0 6 -5 10 -11 10 -5 0
-7 -4 -4 -10z"/>
<path d="M3002 2980 c7 -11 16 -20 20 -20 5 0 3 9 -4 20 -7 11 -16 20 -20 20
-5 0 -3 -9 4 -20z"/>
<path d="M2079 2953 c-13 -16 -12 -17 4 -4 9 7 17 15 17 17 0 8 -8 3 -21 -13z"/>
<path d="M3800 2966 c0 -2 7 -7 16 -10 8 -3 12 -2 9 4 -6 10 -25 14 -25 6z"/>
<path d="M2508 2913 c12 -2 30 -2 40 0 9 3 -1 5 -23 4 -22 0 -30 -2 -17 -4z"/>
<path d="M1310 2900 c0 -14 -57 -70 -73 -70 -7 0 -18 5 -24 11 -8 8 -13 7 -18
-1 -9 -14 14 -32 33 -25 7 3 15 -2 18 -10 4 -8 12 -15 20 -15 8 0 11 6 7 16
-3 8 4 25 18 40 20 22 36 64 24 64 -3 0 -5 -4 -5 -10z"/>
<path d="M1165 2866 c2 -23 25 -35 25 -13 0 9 6 17 13 20 6 2 0 6 -14 9 -21 4
-25 1 -24 -16z"/>
<path d="M1250 2878 c0 -4 4 -8 9 -8 6 0 12 4 15 8 3 5 -1 9 -9 9 -8 0 -15 -4
-15 -9z"/>
<path d="M1220 2871 c0 -5 5 -13 10 -16 6 -3 10 -2 10 4 0 5 -4 13 -10 16 -5
3 -10 2 -10 -4z"/>
<path d="M2166 2833 c4 -16 7 -32 8 -38 2 -22 29 -25 216 -23 181 2 195 1 198
-16 3 -14 11 -17 33 -14 17 3 32 1 35 -4 10 -15 52 -8 57 10 4 15 5 15 6 0 1
-12 9 -16 34 -14 17 2 38 -2 46 -8 12 -9 13 -8 7 4 -6 12 -4 11 6 -1 13 -16
102 -34 93 -19 -13 21 -97 59 -141 65 -27 4 -62 8 -79 10 -16 2 -96 4 -177 4
l-148 1 0 28 0 27 133 -8 c72 -4 153 -14 179 -22 65 -21 80 -19 37 4 -45 24
-210 41 -407 41 l-142 0 6 -27z m174 -13 l0 -30 -75 0 c-58 0 -75 3 -75 14 0
8 -3 21 -6 30 -5 14 5 16 75 16 l81 0 0 -30z"/>
<path d="M2200 2820 c0 -5 7 -10 15 -10 8 0 15 5 15 10 0 6 -7 10 -15 10 -8 0
-15 -4 -15 -10z"/>
<path d="M1110 2825 c-7 -9 -10 -18 -7 -21 3 -3 10 4 17 15 13 25 8 27 -10 6z"/>
<path d="M1866 2821 c-3 -5 1 -11 9 -14 9 -4 12 -1 8 9 -6 16 -10 17 -17 5z"/>
<path d="M762 2799 c2 -7 20 -22 39 -32 19 -10 46 -31 62 -45 15 -14 27 -21
27 -15 0 6 -24 28 -52 50 -69 52 -82 59 -76 42z"/>
<path d="M250 2730 c0 -5 5 -10 11 -10 5 0 7 5 4 10 -3 6 -8 10 -11 10 -2 0
-4 -4 -4 -10z"/>
<path d="M360 2720 c0 -5 7 -7 15 -4 8 4 15 8 15 10 0 2 -7 4 -15 4 -8 0 -15
-4 -15 -10z"/>
<path d="M1351 2714 c0 -11 3 -14 6 -6 3 7 2 16 -1 19 -3 4 -6 -2 -5 -13z"/>
<path d="M1416 2701 c-9 -9 -16 -22 -16 -27 0 -4 7 2 16 14 12 18 19 20 35 12
10 -6 19 -8 19 -6 0 3 -8 10 -19 15 -14 8 -22 6 -35 -8z"/>
<path d="M2128 2713 c6 -2 18 -2 25 0 6 3 1 5 -13 5 -14 0 -19 -2 -12 -5z"/>
<path d="M1317 2703 c-4 -3 -7 -11 -7 -17 0 -6 5 -5 12 2 6 6 9 14 7 17 -3 3
-9 2 -12 -2z"/>
<path d="M415 2687 c-33 -40 -35 -48 -7 -23 18 17 32 31 32 33 0 7 -16 1 -25
-10z"/>
<path d="M2040 2689 c-58 -4 -108 -7 -111 -8 -9 -1 -18 -51 -10 -51 4 0 11 4
17 9 18 19 106 -7 142 -42 29 -28 33 -37 29 -70 -5 -38 -49 -93 -66 -82 -5 2
-19 -6 -32 -19 -13 -12 -33 -28 -44 -35 -17 -10 -14 -11 22 -9 23 1 45 -1 49
-5 4 -4 5 -7 3 -7 -2 0 -34 -11 -71 -24 -36 -13 -69 -22 -72 -18 -12 11 -6 22
22 37 l27 16 -35 -4 c-43 -6 -70 7 -70 33 0 11 -3 20 -8 20 -12 0 -33 -40 -27
-50 4 -6 -1 -13 -9 -16 -12 -5 -13 -11 -5 -32 6 -15 12 -47 14 -72 1 -25 0
-39 -2 -32 -3 6 -8 10 -13 7 -8 -5 -39 63 -46 102 -2 12 -9 34 -14 48 -6 15
-10 47 -11 73 -1 83 -18 15 -18 -75 -1 -61 5 -97 20 -139 25 -67 100 -149 144
-159 17 -4 37 -9 45 -12 8 -4 20 -5 27 -4 6 1 19 -9 28 -21 l17 -23 -5 25 c-4
15 0 31 10 42 20 22 6 24 -18 2 -17 -15 -24 -13 -95 22 -53 27 -86 51 -105 78
-41 55 -36 63 9 15 l37 -40 50 11 c27 6 71 22 98 36 27 13 54 21 59 17 6 -3 8
-2 5 4 -3 5 7 20 23 32 20 14 30 17 30 9 0 -8 5 -6 11 5 5 9 21 28 33 40 13
13 36 51 52 85 18 39 32 58 38 53 43 -32 435 -51 661 -32 203 18 235 22 259
32 15 6 10 7 -18 2 -30 -4 -37 -3 -31 7 6 10 2 11 -16 6 -43 -13 -182 -25
-284 -24 l-100 1 120 7 c135 7 188 26 246 86 35 36 49 35 96 -9 13 -11 26 -18
29 -14 8 7 -91 71 -165 106 l-56 26 -397 5 c-244 3 -401 9 -407 15 -7 7 87 10
282 9 161 -1 281 0 267 2 -48 7 -556 9 -660 3z m218 -80 c14 -5 22 -17 22 -31
0 -48 20 -56 160 -64 52 -4 124 -10 160 -15 63 -8 62 -8 -22 -5 -59 3 -88 0
-88 -7 0 -7 -4 -7 -12 1 -7 7 -17 12 -23 12 -5 0 -3 -5 5 -10 10 -7 -23 -9
-105 -6 -159 6 -150 3 -149 50 1 23 -2 53 -7 69 -9 30 -7 30 59 6z m672 -22
c0 -4 5 -5 10 -2 6 3 10 -1 10 -10 0 -10 -5 -14 -12 -9 -10 6 -10 4 0 -7 19
-21 14 -31 -15 -27 -22 2 -29 10 -34 35 -6 30 -4 32 17 31 13 -1 24 -6 24 -11z
m-453 -39 c-3 -7 -5 -2 -5 12 0 14 2 19 5 13 2 -7 2 -19 0 -25z m316 -15 c-7
-2 -19 -2 -25 0 -7 3 -2 5 12 5 14 0 19 -2 13 -5z m-305 -70 c-21 -2 -57 -2
-80 0 -24 2 -7 4 37 4 44 0 63 -2 43 -4z"/>
<path d="M2358 2493 c7 -3 16 -2 19 1 4 3 -2 6 -13 5 -11 0 -14 -3 -6 -6z"/>
<path d="M2408 2493 c6 -2 18 -2 25 0 6 3 1 5 -13 5 -14 0 -19 -2 -12 -5z"/>
<path d="M2901 2564 c0 -11 3 -14 6 -6 3 7 2 16 -1 19 -3 4 -6 -2 -5 -13z"/>
<path d="M473 2675 c-11 -8 -37 -39 -57 -69 -20 -30 -44 -62 -52 -71 -9 -9
-15 -18 -12 -20 4 -4 313 -24 353 -23 11 1 33 10 48 20 23 17 27 26 25 59 -1
21 1 42 5 45 4 4 7 -5 7 -19 0 -31 14 -35 29 -9 9 15 10 15 11 1 0 -9 -10 -24
-22 -32 -19 -13 -11 -12 42 3 36 10 88 22 115 26 28 4 42 9 30 12 -10 2 -29
11 -41 19 -34 22 -122 43 -181 43 -45 0 -106 6 -244 25 -22 3 -43 -1 -56 -10z
m177 -50 c0 -15 -14 -34 -21 -29 -5 3 -9 0 -9 -5 0 -14 27 -14 35 -1 3 6 14
10 23 9 11 0 12 -2 4 -6 -15 -6 -6 -23 11 -19 7 1 9 1 5 -1 -5 -3 -8 -11 -8
-19 0 -11 6 -11 27 -3 15 6 31 16 35 22 5 8 8 7 8 -4 0 -28 -63 -50 -133 -47
-55 3 -62 5 -65 25 -2 13 4 33 14 45 13 18 15 19 10 4 -8 -22 1 -56 15 -56 5
0 7 11 3 25 -4 15 -1 32 6 40 10 12 10 15 -3 15 -9 0 -18 4 -21 8 -2 4 11 6
30 4 19 -2 34 -6 34 -7z m117 -12 c-11 -24 -47 -27 -55 -4 -2 6 0 11 5 10 4
-1 17 -1 28 0 16 1 17 3 5 11 -12 7 -10 9 6 8 19 -2 20 -5 11 -25z m56 20 c-7
-2 -19 -2 -25 0 -7 3 -2 5 12 5 14 0 19 -2 13 -5z m117 -23 c24 -8 24 -8 -5
-9 -16 0 -37 4 -45 9 -12 8 -11 10 5 9 11 -1 31 -5 45 -9z m-411 -45 c-9 -9
-23 -12 -39 -8 -23 6 -23 7 10 18 40 14 50 11 29 -10z m331 15 c0 -5 -4 -10
-10 -10 -5 0 -10 5 -10 10 0 6 5 10 10 10 6 0 10 -4 10 -10z"/>
<path d="M661 2554 c0 -11 3 -14 6 -6 3 7 2 16 -1 19 -3 4 -6 -2 -5 -13z"/>
<path d="M1255 2668 l-20 -21 22 12 c23 12 40 31 26 30 -4 0 -17 -10 -28 -21z"/>
<path d="M1381 2674 c0 -11 3 -14 6 -6 3 7 2 16 -1 19 -3 4 -6 -2 -5 -13z"/>
<path d="M1440 2684 c0 -12 21 -34 33 -34 4 0 6 4 3 9 -4 5 -3 11 1 14 5 2 3
3 -3 1 -6 -1 -17 3 -23 9 -6 6 -11 7 -11 1z"/>
<path d="M1315 2660 c-3 -5 1 -10 10 -10 9 0 13 5 10 10 -3 6 -8 10 -10 10 -2
0 -7 -4 -10 -10z"/>
<path d="M1350 2590 c6 -11 13 -20 16 -20 2 0 0 9 -6 20 -6 11 -13 20 -16 20
-2 0 0 -9 6 -20z"/>
<path d="M930 2555 c-41 -8 -93 -21 -115 -29 -33 -14 -35 -15 -10 -11 143 23
184 29 207 28 16 0 25 4 21 10 -3 6 -1 7 6 3 20 -12 1 -26 -26 -20 -19 5 -24
4 -18 -6 5 -9 1 -10 -16 -6 -21 6 -21 5 -6 -4 9 -6 27 -8 40 -5 31 9 89 36 85
40 -12 11 -105 11 -168 0z"/>
<path d="M1130 2560 c20 -13 33 -13 25 0 -3 6 -14 10 -23 10 -15 0 -15 -2 -2
-10z"/>
<path d="M1300 2545 c0 -8 -5 -15 -12 -15 -6 0 -8 -3 -5 -6 8 -8 37 14 37 27
0 5 -4 9 -10 9 -5 0 -10 -7 -10 -15z"/>
<path d="M1130 2527 c-19 -6 -102 -32 -183 -59 -82 -26 -152 -46 -156 -44 -9
6 -49 -4 -177 -43 -156 -47 -182 -51 -380 -57 -196 -5 -291 -21 -154 -25 64
-2 69 -3 35 -9 l-40 -7 35 -2 c27 -1 31 -4 20 -11 -12 -8 -11 -10 8 -10 19 0
26 9 24 31 -1 3 39 6 88 5 64 -1 89 -4 86 -13 -3 -6 1 -14 8 -16 8 -3 13 1 12
11 -1 13 21 19 109 33 134 20 232 45 406 103 74 25 157 52 184 61 28 9 58 21
69 27 25 13 78 20 71 8 -3 -4 8 -3 24 3 17 6 28 14 25 18 -6 10 -69 7 -114 -4z"/>
<path d="M3130 2519 c0 -5 -6 -7 -12 -3 -7 4 -10 3 -5 -1 13 -15 46 -13 40 2
-6 16 -23 17 -23 2z"/>
<path d="M1350 2510 c0 -6 7 -10 15 -10 8 0 15 2 15 4 0 2 -7 6 -15 10 -8 3
-15 1 -15 -4z"/>
<path d="M3098 2488 c6 -6 18 -8 28 -6 14 3 12 5 -9 10 -19 3 -25 2 -19 -4z"/>
<path d="M3173 2473 c9 -2 25 -2 35 0 9 3 1 5 -18 5 -19 0 -27 -2 -17 -5z"/>
<path d="M298 2453 c12 -2 30 -2 40 0 9 3 -1 5 -23 4 -22 0 -30 -2 -17 -4z"/>
<path d="M1855 2434 c2 -33 15 -43 15 -11 0 14 -4 28 -8 31 -4 2 -7 -6 -7 -20z"/>
<path d="M3214 2406 c11 -9 27 -16 35 -16 9 0 11 -3 6 -9 -6 -5 -41 -12 -80
-15 -38 -2 -90 -12 -115 -22 -38 -14 -84 -17 -300 -17 -183 -1 -206 -2 -82 -4
144 -3 173 -6 169 -18 -3 -7 -9 -29 -12 -48 -6 -32 -5 -35 26 -41 35 -7 59 7
59 34 0 25 -25 43 -49 35 -16 -5 -20 -3 -15 9 11 28 117 21 199 -12 67 -27
183 -58 235 -63 91 -9 110 61 45 160 -28 42 -42 53 -31 26 3 -8 1 -15 -4 -15
-6 0 -10 4 -10 9 0 6 -12 9 -27 7 -16 -1 -37 1 -48 6 -20 9 -20 9 -1 -6z
m-314 -161 c0 -16 -45 -21 -54 -6 -8 12 4 21 31 21 14 0 23 -6 23 -15z"/>
<path d="M1590 2395 c0 -8 2 -15 4 -15 2 0 6 7 10 15 3 8 1 15 -4 15 -6 0 -10
-7 -10 -15z"/>
<path d="M1510 2393 c-29 -10 -85 -36 -108 -51 -39 -25 -16 -25 35 0 26 14 54
23 61 20 6 -2 12 1 12 6 0 5 6 10 13 9 36 -1 57 4 52 13 -6 10 -39 12 -65 3z"/>
<path d="M2181 2376 c-8 -14 -11 -29 -8 -33 4 -3 7 1 7 10 0 8 5 17 12 19 6 2
9 10 7 17 -3 8 -10 3 -18 -13z"/>
<path d="M2270 2355 c0 -8 4 -15 10 -15 5 0 7 7 4 15 -4 8 -8 15 -10 15 -2 0
-4 -7 -4 -15z"/>
<path d="M2120 2303 c-19 -21 -37 -39 -42 -39 -4 -1 -11 -2 -15 -3 -4 0 1 -7
12 -14 14 -11 15 -16 5 -22 -7 -4 -16 -2 -22 6 -7 10 -8 8 -3 -7 3 -13 0 -28
-10 -37 -30 -30 -14 -30 18 0 52 48 79 63 118 63 26 0 39 -5 44 -17 12 -32 16
-177 5 -203 -8 -20 -30 -417 -30 -532 0 -16 -4 -28 -10 -28 -5 0 -10 7 -10 16
0 9 -5 33 -11 53 l-11 36 -121 -3 c-67 -2 -286 -5 -487 -7 -336 -3 -365 -5
-369 -21 -3 -16 20 -17 370 -11 431 8 472 5 488 -30 6 -13 11 -26 11 -28 0 -3
-67 -5 -149 -5 -134 0 -150 2 -154 18 -4 16 -5 16 -6 0 -1 -11 -6 -15 -16 -12
-11 5 -13 2 -9 -10 5 -14 27 -16 176 -14 l170 3 40 -65 c22 -36 51 -77 66 -92
l26 -28 -40 6 c-61 8 -943 10 -1094 2 -81 -5 -125 -4 -110 1 14 5 48 10 75 10
28 1 70 6 95 12 25 6 108 15 185 19 l140 8 -140 -4 c-77 -2 -195 -6 -262 -10
-159 -8 -190 -2 -208 39 -8 18 -14 26 -15 18 0 -7 15 -40 32 -73 l33 -60 103
6 c60 3 102 2 102 -3 0 -6 15 -12 33 -14 30 -4 29 -4 -8 -6 -45 -2 -74 -15
-57 -25 6 -4 8 -14 5 -24 -6 -14 -4 -15 8 -5 8 7 33 16 55 21 33 7 47 5 75 -9
19 -10 53 -28 77 -39 23 -12 40 -25 37 -30 -3 -5 1 -14 8 -22 7 -7 16 -21 20
-30 3 -10 11 -18 17 -18 5 0 10 -5 10 -11 0 -5 -4 -7 -10 -4 -5 3 -10 2 -10
-4 0 -5 -7 -17 -16 -25 -8 -9 -12 -16 -7 -17 4 0 17 -2 28 -4 11 -3 44 2 73
11 47 13 55 13 75 -1 12 -8 28 -15 37 -15 19 0 44 -36 50 -75 4 -27 8 -30 36
-27 19 2 38 -3 48 -13 9 -9 24 -14 34 -11 12 4 26 -2 39 -18 11 -13 25 -25 30
-27 6 -2 13 -22 17 -44 5 -29 4 -36 -3 -25 -7 9 -11 10 -11 3 0 -7 -17 -15
-37 -19 -21 -4 -44 -14 -51 -23 -12 -14 -13 -14 -8 2 3 9 1 17 -4 17 -5 0 -7
8 -4 17 5 14 4 15 -4 4 -5 -7 -14 -11 -19 -8 -6 4 -3 -9 6 -27 15 -30 20 -33
58 -32 38 1 43 4 44 26 1 17 3 19 6 8 5 -19 63 -27 63 -9 0 6 12 6 30 1 19 -5
42 -5 61 2 22 7 37 7 55 -1 20 -9 28 -7 43 8 11 11 22 17 25 14 8 -9 77 27 83
43 3 8 12 13 20 10 13 -6 93 47 101 67 4 7 56 37 66 37 3 0 3 -8 0 -17 -3 -10
1 -8 8 5 8 12 17 20 20 17 3 -4 19 0 36 9 16 8 50 16 76 17 26 2 49 6 52 10 3
5 12 5 21 2 11 -4 14 -2 9 5 -7 12 50 41 94 47 14 2 44 7 68 10 31 6 42 4 42
-5 0 -9 6 -7 20 5 10 9 26 15 35 11 9 -3 23 -2 33 3 9 5 40 14 67 19 93 20
150 39 135 46 -8 3 -2 4 13 2 20 -2 27 0 23 10 -3 8 0 11 9 8 20 -8 110 22
171 56 51 30 69 33 41 7 -11 -11 -37 -24 -137 -70 l-35 -16 45 6 c25 3 42 2
38 -2 -5 -5 2 -13 15 -20 15 -8 24 -8 29 -1 5 7 8 4 8 -6 0 -9 -5 -18 -11 -20
-8 -3 -9 -13 -4 -28 8 -24 8 -24 16 -5 4 11 8 31 8 45 1 28 36 60 110 101 34
19 59 25 96 24 34 -2 53 3 61 13 6 8 23 14 37 15 15 0 27 3 27 6 0 15 50 5 63
-14 13 -16 17 -17 31 -6 22 19 20 34 -4 26 -11 -3 -20 -2 -20 3 0 15 82 34
107 25 17 -6 20 -12 12 -23 -8 -11 -12 -12 -16 -2 -2 6 -16 12 -29 12 -20 0
-24 -5 -24 -30 0 -16 5 -30 10 -30 6 0 10 5 10 10 0 6 5 10 10 10 15 0 25 -31
14 -39 -6 -3 -5 -20 3 -41 l12 -35 0 47 c1 60 9 78 32 78 17 0 24 16 20 43 0
4 8 7 19 7 20 0 28 -16 11 -22 -6 -2 -6 -18 -2 -38 l7 -34 22 22 c26 26 35 27
56 6 15 -14 16 -13 16 15 0 17 5 31 11 31 6 0 9 -7 5 -15 -3 -8 -2 -23 2 -33
4 -10 9 13 13 58 3 41 5 -15 5 -127 -1 -110 2 -199 7 -196 4 2 7 118 7 258 l0
254 -187 -5 c-104 -3 -207 -6 -231 -8 l-43 -4 3 273 c2 150 7 277 11 282 5 4
107 7 228 6 120 -1 219 2 219 6 0 5 -91 11 -202 15 -112 4 -223 8 -248 10 -25
2 -35 1 -22 -1 24 -5 28 -13 11 -30 -6 -6 -13 -53 -16 -106 -6 -90 -7 -95 -30
-100 -17 -3 -21 -1 -13 8 7 8 6 12 -3 12 -29 1 -264 67 -368 104 -150 54 -161
56 -320 68 -74 6 -146 14 -160 19 -44 17 -99 23 -99 12 0 -5 7 -10 15 -10 22
0 78 -30 88 -47 5 -7 12 -11 18 -8 13 9 94 -61 118 -101 12 -20 25 -32 31 -29
5 3 7 0 4 -8 -3 -8 2 -21 10 -30 9 -9 16 -20 16 -26 0 -5 6 -14 14 -18 17 -10
68 -132 60 -144 -3 -5 2 -9 12 -9 14 0 14 -3 4 -15 -11 -13 -10 -14 4 -9 9 3
23 1 31 -6 41 -34 -59 189 -124 275 -21 27 -42 57 -46 65 -14 25 74 -73 93
-103 15 -26 21 -28 59 -24 24 2 40 1 37 -4 -3 -5 -21 -9 -40 -9 -19 0 -34 -4
-34 -10 0 -5 5 -10 10 -10 6 0 10 -10 10 -22 0 -19 2 -20 10 -8 8 13 10 12 10
-3 0 -10 5 -15 10 -12 6 3 10 2 10 -4 0 -5 -5 -13 -10 -16 -6 -4 -8 -11 -4
-16 3 -5 9 -7 14 -4 5 3 12 -6 16 -20 5 -19 12 -25 35 -25 33 0 38 -13 9 -26
-14 -6 10 -10 77 -11 53 -1 92 2 86 5 -6 4 32 6 84 5 166 -3 132 -11 -157 -34
-80 -7 -150 -16 -157 -21 -7 -5 -13 -4 -16 4 -3 7 -6 4 -6 -7 -1 -17 -3 -18
-12 -5 -8 12 -9 10 -4 -7 4 -14 2 -23 -4 -23 -6 0 -11 -8 -11 -17 0 -16 -2
-16 -10 -3 -8 11 -9 7 -4 -15 4 -23 3 -26 -5 -15 -8 11 -10 0 -7 -42 2 -32 1
-58 -3 -58 -4 0 -12 -20 -19 -45 l-12 -44 -184 0 -184 0 8 27 c4 15 17 53 29
84 60 171 77 343 46 475 -20 86 -70 232 -85 247 -6 6 -4 -8 4 -32 8 -23 12
-42 8 -42 -4 0 -1 -4 7 -9 9 -6 11 -15 6 -27 -7 -17 -9 -16 -18 9 -12 29 -27
36 -27 12 0 -8 5 -15 11 -15 8 0 8 -4 1 -12 -5 -7 -13 -34 -16 -60 -4 -26 -11
-50 -17 -53 -17 -11 -9 -35 11 -35 11 0 20 -5 20 -11 0 -7 -10 -9 -25 -5 -28
7 -32 1 -39 -49 -2 -16 -7 -39 -11 -50 -4 -11 -3 -15 2 -9 11 15 67 28 58 14
-3 -5 -15 -10 -26 -10 -10 0 -19 -4 -19 -10 0 -5 8 -10 19 -10 10 0 31 -6 45
-14 37 -19 15 -26 -84 -26 -65 0 -81 -3 -89 -17 -6 -10 -10 -13 -11 -8 0 6 11
28 25 50 34 56 65 122 65 137 0 7 5 20 11 28 9 13 10 12 5 -3 -3 -10 -2 -16 2
-13 15 9 13 268 -2 325 -31 111 -120 191 -216 191 -47 0 -49 1 -38 20 7 11 18
21 25 22 8 2 9 8 4 16 -6 10 -17 3 -41 -25z m107 -515 c-3 -8 -6 -5 -6 6 -1
11 2 17 5 13 3 -3 4 -12 1 -19z m1103 -112 c-58 -29 -118 -61 -135 -70 -16 -9
-37 -16 -45 -15 -8 0 -1 6 15 12 17 7 51 26 75 43 48 33 155 83 180 84 8 0
-32 -24 -90 -54z m-303 38 c-3 -3 -12 -4 -19 -1 -8 3 -5 6 6 6 11 1 17 -2 13
-5z m178 -64 c-22 -10 -51 -32 -65 -49 -21 -25 -28 -27 -42 -17 -15 11 -14 14
15 32 36 21 107 52 122 52 6 0 -8 -8 -30 -18z m70 -40 c3 -6 -1 -7 -9 -4 -18
7 -21 14 -7 14 6 0 13 -4 16 -10z m-205 -30 c0 -5 8 -10 18 -10 15 -1 15 -2
-2 -15 -11 -8 -25 -15 -30 -15 -6 0 -5 4 3 9 12 8 12 12 2 25 -9 11 -10 16 -2
16 6 0 11 -4 11 -10z m420 -22 c0 -11 -38 -10 -44 1 -3 5 5 8 19 7 14 0 25 -4
25 -8z m26 -14 c-4 -9 -9 -15 -11 -12 -3 3 -3 13 1 22 4 9 9 15 11 12 3 -3 3
-13 -1 -22z m-395 -7 c-10 -9 -11 -8 -5 6 3 10 9 15 12 12 3 -3 0 -11 -7 -18z
m299 -1 c0 -2 -7 -7 -16 -10 -8 -3 -12 -2 -9 4 6 10 25 14 25 6z m-1133 -38
c-3 -7 -5 -2 -5 12 0 14 2 19 5 13 2 -7 2 -19 0 -25z m1220 -10 c-3 -7 -5 -2
-5 12 0 14 2 19 5 13 2 -7 2 -19 0 -25z m-77 -12 c0 -2 -8 -10 -17 -17 -16
-13 -17 -12 -4 4 13 16 21 21 21 13z m-60 -59 c0 -2 -12 -14 -27 -28 l-28 -24
24 28 c23 25 31 32 31 24z m-1063 -79 c-2 -13 -4 -5 -4 17 -1 22 1 32 4 23 2
-10 2 -28 0 -40z m593 15 c-11 -17 -11 -17 -6 0 3 10 6 24 7 30 0 9 2 9 5 0 3
-7 0 -20 -6 -30z m610 -53 c-9 -18 -40 -40 -55 -40 -5 0 57 59 63 60 1 0 -2
-9 -8 -20z m-1193 -62 c-3 -7 -5 -2 -5 12 0 14 2 19 5 13 2 -7 2 -19 0 -25z
m-109 -3 c-3 -3 -9 2 -12 12 -6 14 -5 15 5 6 7 -7 10 -15 7 -18z m713 -2 c-12
-20 -14 -14 -5 12 4 9 9 14 11 11 3 -2 0 -13 -6 -23z m-734 -9 c-3 -3 -12 -4
-19 -1 -8 3 -5 6 6 6 11 1 17 -2 13 -5z m33 -30 c0 -2 -7 -4 -15 -4 -8 0 -15
4 -15 10 0 5 7 7 15 4 8 -4 15 -8 15 -10z m681 -11 c-12 -20 -14 -14 -5 12 4
9 9 14 11 11 3 -2 0 -13 -6 -23z m-641 -30 c0 -14 -2 -15 -9 -4 -6 10 -31 12
-99 10 -49 -2 -85 -1 -79 3 7 4 51 8 100 8 76 0 87 -2 87 -17z m458 10 c-27
-2 -69 -2 -95 0 -27 2 -5 3 47 3 52 0 74 -1 48 -3z m92 -13 c0 -5 -12 -10 -27
-9 l-28 1 25 8 c14 4 26 8 28 9 1 1 2 -3 2 -9z m-114 -11 c-29 -4 -56 -4 -65
1 -11 6 5 9 49 9 l65 -1 -49 -9z m-219 -25 c-3 -3 -12 -4 -19 -1 -8 3 -5 6 6
6 11 1 17 -2 13 -5z"/>
<path d="M2215 2321 c7 -12 124 -11 131 1 3 4 -27 8 -66 8 -42 0 -69 -4 -65
-9z"/>
<path d="M2385 2320 c7 -11 105 -9 105 3 0 4 -25 7 -56 7 -34 0 -53 -4 -49
-10z"/>
<path d="M2510 2274 c0 -16 5 -36 10 -44 6 -10 7 -2 3 25 -7 49 -13 58 -13 19z"/>
<path d="M390 2263 c-7 -16 -12 -34 -11 -41 1 -7 -4 -11 -10 -10 -11 3 -106
-150 -122 -197 -11 -33 41 35 60 78 9 20 20 37 23 37 3 0 12 16 19 35 7 19 16
33 21 30 10 -6 22 23 15 35 -3 5 3 15 13 22 26 19 36 38 19 38 -7 0 -20 -12
-27 -27z"/>
<path d="M273 2273 c9 -2 25 -2 35 0 9 3 1 5 -18 5 -19 0 -27 -2 -17 -5z"/>
<path d="M7 2253 c7 -2 19 -2 26 0 6 3 1 5 -13 5 -14 0 -19 -2 -13 -5z"/>
<path d="M2603 2223 c37 -2 97 -2 135 0 37 2 6 3 -68 3 -74 0 -105 -1 -67 -3z"/>
<path d="M2821 2123 c-1 -31 -4 -60 -7 -64 -2 -4 0 -10 4 -13 5 -3 12 18 16
47 8 70 8 87 -2 87 -5 0 -10 -26 -11 -57z"/>
<path d="M2400 2140 c6 -11 13 -20 16 -20 2 0 0 9 -6 20 -6 11 -13 20 -16 20
-2 0 0 -9 6 -20z"/>
<path d="M3124 2106 c-22 -12 -60 -30 -83 -40 -24 -9 -41 -19 -39 -22 3 -2 30
7 60 20 l55 25 79 -25 c44 -13 83 -23 89 -21 5 2 -26 14 -68 28 -42 13 -77 27
-77 30 0 3 10 11 23 17 12 6 18 11 12 11 -5 0 -28 -11 -51 -23z"/>
<path d="M1283 2063 c9 -2 23 -2 30 0 6 3 -1 5 -18 5 -16 0 -22 -2 -12 -5z"/>
<path d="M2877 2044 c-3 -4 -41 -10 -84 -14 -77 -7 -77 -7 -18 -8 52 0 166 24
124 27 -9 1 -18 -2 -22 -5z"/>
<path d="M1803 2033 c15 -2 37 -2 50 0 12 2 0 4 -28 4 -27 0 -38 -2 -22 -4z"/>
<path d="M2573 2023 c9 -2 25 -2 35 0 9 3 1 5 -18 5 -19 0 -27 -2 -17 -5z"/>
<path d="M1180 1986 c0 -18 6 -38 13 -44 21 -17 226 -42 345 -42 l112 0 0 38
c0 20 -4 44 -10 52 -11 18 -116 28 -312 29 l-148 1 0 -34z m271 -15 c6 10 9 3
9 -19 0 -30 -2 -33 -27 -30 -22 2 -27 8 -25 23 5 23 25 39 31 24 2 -7 7 -6 12
2z m76 -17 c-3 -3 -12 -4 -19 -1 -8 3 -5 6 6 6 11 1 17 -2 13 -5z"/>
<path d="M3468 1983 c7 -3 16 -2 19 1 4 3 -2 6 -13 5 -11 0 -14 -3 -6 -6z"/>
<path d="M1221 1895 c7 -6 139 -34 224 -46 39 -6 185 -11 325 -13 146 -1 229
1 195 5 -33 4 -121 8 -195 10 -154 2 -404 23 -470 38 -48 11 -87 14 -79 6z"/>
<path d="M3580 1833 c0 -17 9 -21 68 -26 115 -11 132 -10 132 13 0 18 -7 20
-62 20 -35 0 -80 3 -100 6 -33 6 -38 4 -38 -13z m180 -13 c0 -5 -5 -10 -11
-10 -5 0 -7 5 -4 10 3 6 8 10 11 10 2 0 4 -4 4 -10z"/>
<path d="M3878 1833 c23 -2 61 -2 85 0 23 2 4 4 -43 4 -47 0 -66 -2 -42 -4z"/>
<path d="M1440 1759 c-69 -5 -141 -10 -160 -11 -19 -2 152 -1 381 1 l415 4 13
-44 c8 -24 16 -38 18 -32 3 7 -4 30 -14 50 l-18 38 -255 1 c-140 1 -311 -2
-380 -7z"/>
<path d="M1198 1733 c7 -3 16 -2 19 1 4 3 -2 6 -13 5 -11 0 -14 -3 -6 -6z"/>
<path d="M1900 1714 c0 -14 2 -15 17 -3 11 10 14 10 9 2 -4 -7 -2 -13 3 -13 6
0 11 7 11 15 0 8 -9 15 -20 15 -12 0 -20 -7 -20 -16z"/>
<path d="M1990 1710 c0 -11 5 -20 10 -20 6 0 10 9 10 20 0 11 -4 20 -10 20 -5
0 -10 -9 -10 -20z"/>
<path d="M1960 1705 c0 -8 2 -15 4 -15 2 0 6 7 10 15 3 8 1 15 -4 15 -6 0 -10
-7 -10 -15z"/>
<path d="M3575 1700 c4 -6 46 -9 98 -9 86 2 89 2 37 9 -82 12 -142 12 -135 0z"/>
<path d="M3788 1693 c7 -3 16 -2 19 1 4 3 -2 6 -13 5 -11 0 -14 -3 -6 -6z"/>
<path d="M620 1668 c0 -10 5 -18 10 -18 6 0 10 5 10 11 0 8 49 10 162 8 99 -2
163 0 165 6 2 6 -63 10 -172 10 -160 0 -175 -1 -175 -17z"/>
<path d="M1140 1680 c0 -6 4 -9 9 -5 5 3 12 -2 14 -10 4 -12 5 -12 3 1 -1 19
-26 32 -26 14z"/>
<path d="M3826 1674 c-3 -9 -6 -21 -5 -27 0 -7 4 -3 8 7 6 17 17 19 92 17 59
-1 80 1 69 9 -8 5 -47 10 -86 10 -56 0 -73 -3 -78 -16z"/>
<path d="M3678 1633 c17 -2 47 -2 65 0 17 2 3 4 -33 4 -36 0 -50 -2 -32 -4z"/>
<path d="M3826 1622 c-8 -14 -10 -127 -1 -127 4 0 9 30 9 68 1 69 1 72 -8 59z"/>
<path d="M3878 1623 c18 -2 45 -2 60 0 15 2 0 4 -33 4 -33 0 -45 -2 -27 -4z"/>
<path d="M2325 1599 c4 -5 18 -9 32 -9 32 0 23 12 -12 16 -14 1 -23 -2 -20 -7z"/>
<path d="M350 1584 c-63 -7 -137 -15 -164 -18 -26 -2 -51 -8 -55 -12 -11 -12
326 19 338 32 10 10 -10 9 -119 -2z"/>
<path d="M492 1583 c3 -15 16 -19 66 -21 35 -2 62 1 62 7 0 5 -9 7 -21 4 -12
-4 -25 0 -30 8 -6 10 -9 10 -9 2 0 -7 -7 -13 -16 -13 -10 0 -14 6 -10 15 4 11
-2 15 -20 15 -19 0 -25 -5 -22 -17z"/>
<path d="M640 1572 c0 -5 14 -7 30 -4 17 2 30 6 30 8 0 2 -13 4 -30 4 -16 0
-30 -4 -30 -8z"/>
<path d="M750 1560 c28 -6 21 -8 -37 -9 -47 -1 -73 -5 -73 -12 0 -8 13 -9 39
-5 22 3 52 1 67 -4 21 -8 31 -7 44 5 9 8 23 15 31 16 27 2 -36 17 -71 17 l-35
-1 35 -7z"/>
<path d="M1010 1551 c-25 -3 -43 -10 -40 -16 3 -5 8 -9 12 -8 5 2 48 3 98 4
70 1 90 4 90 15 0 15 -69 17 -160 5z"/>
<path d="M2670 1551 c49 -12 210 -22 183 -11 -11 5 -65 11 -120 14 -64 4 -86
3 -63 -3z"/>
<path d="M807 1529 c7 -7 15 -10 18 -7 3 3 -2 9 -12 12 -14 6 -15 5 -6 -5z"/>
<path d="M783 1508 c1 -7 -22 -11 -73 -12 -74 -1 -75 -1 -78 -28 l-3 -27 73 6
c93 7 100 13 15 13 -38 0 -67 4 -67 10 0 13 110 13 130 0 16 -10 31 14 23 38
-6 15 -24 16 -20 0z"/>
<path d="M2626 1492 c-4 -7 5 -9 29 -5 29 5 35 3 36 -13 0 -11 3 -14 6 -6 3 8
28 12 74 12 l69 0 1 -72 c1 -40 1 -86 0 -103 -1 -30 -1 -30 9 -6 6 14 8 36 5
50 -3 14 -1 51 4 81 5 30 8 56 7 57 -1 1 -54 5 -118 9 -77 4 -118 3 -122 -4z"/>
<path d="M1215 1459 c-2 -8 -3 -23 -1 -34 3 -11 5 -26 5 -32 1 -9 18 -13 51
-13 45 0 52 3 60 26 6 14 8 30 4 35 -3 5 68 9 175 9 163 0 180 -2 184 -17 4
-14 5 -12 6 5 l1 22 -187 0 c-104 0 -212 3 -240 6 -40 5 -54 3 -58 -7z m81
-34 c-35 -30 -56 -32 -56 -6 0 15 8 21 38 24 20 2 39 4 42 5 3 1 -8 -9 -24
-23z"/>
<path d="M2710 1455 c0 -11 -12 -15 -45 -15 -25 0 -45 -5 -45 -10 0 -12 149
-10 156 2 3 4 -9 8 -25 8 -17 0 -31 5 -31 11 0 5 4 8 9 4 5 -3 12 -1 16 5 3 5
-3 10 -14 10 -12 0 -21 -7 -21 -15z"/>
<path d="M516 1415 c11 -48 25 -76 18 -35 -4 19 -10 42 -15 50 -6 10 -7 5 -3
-15z"/>
<path d="M1380 1414 c0 -11 6 -21 13 -21 6 0 18 -2 26 -4 7 -2 16 3 18 11 4
13 3 13 -6 0 -9 -12 -11 -11 -11 8 0 13 4 20 10 17 6 -3 10 -2 10 3 0 5 -13 9
-30 8 -23 -1 -30 -5 -30 -22z"/>
<path d="M1486 1413 c-4 -9 -3 -20 2 -25 6 -6 10 1 10 16 0 30 -3 32 -12 9z"/>
<path d="M1461 1404 c0 -11 3 -14 6 -6 3 7 2 16 -1 19 -3 4 -6 -2 -5 -13z"/>
<path d="M1516 1405 c-3 -8 -1 -15 4 -15 6 0 10 7 10 15 0 8 -2 15 -4 15 -2 0
-6 -7 -10 -15z"/>
<path d="M1571 1413 c-1 -7 -8 -13 -16 -13 -8 0 -15 -4 -15 -8 0 -10 34 -9 38
1 2 4 1 13 -1 20 -4 9 -6 9 -6 0z"/>
<path d="M1600 1389 c0 -5 5 -7 10 -4 6 3 10 8 10 11 0 2 -4 4 -10 4 -5 0 -10
-5 -10 -11z"/>
<path d="M1630 1389 c0 -5 5 -7 10 -4 6 3 10 8 10 11 0 2 -4 4 -10 4 -5 0 -10
-5 -10 -11z"/>
<path d="M1660 1389 c0 -5 5 -7 10 -4 6 3 10 8 10 11 0 2 -4 4 -10 4 -5 0 -10
-5 -10 -11z"/>
<path d="M2690 1341 c-48 -5 -55 -9 -58 -30 -5 -34 9 -39 96 -33 80 4 102 16
102 54 0 20 -25 21 -140 9z m10 -30 c0 -12 -39 -25 -47 -17 -4 3 -1 6 6 6 7 0
9 5 6 10 -3 6 3 10 14 10 12 0 21 -4 21 -9z"/>
<path d="M2602 1324 c-7 -8 -10 -18 -7 -24 3 -5 -2 -13 -11 -18 -14 -8 -14
-10 4 -14 17 -5 21 0 25 31 5 43 5 43 -11 25z"/>
<path d="M2490 1217 c0 -10 8 -17 18 -17 9 0 13 4 7 8 -5 4 -13 11 -17 16 -5
5 -8 2 -8 -7z"/>
<path d="M3810 1131 c-15 -28 -12 -33 10 -19 21 13 27 38 10 38 -5 0 -14 -9
-20 -19z"/>
<path d="M581 1124 c0 -11 3 -14 6 -6 3 7 2 16 -1 19 -3 4 -6 -2 -5 -13z"/>
<path d="M3630 1132 c0 -18 19 -24 37 -13 10 6 13 11 6 11 -6 0 -18 3 -27 6
-9 3 -16 1 -16 -4z"/>
<path d="M380 1119 c0 -5 5 -7 10 -4 6 3 10 8 10 11 0 2 -4 4 -10 4 -5 0 -10
-5 -10 -11z"/>
<path d="M88 1113 c7 -3 16 -2 19 1 4 3 -2 6 -13 5 -11 0 -14 -3 -6 -6z"/>
<path d="M540 1110 c0 -5 5 -10 10 -10 6 0 10 5 10 10 0 6 -4 10 -10 10 -5 0
-10 -4 -10 -10z"/>
<path d="M3863 1108 c3 -9 1 -19 -6 -22 -7 -3 -3 -4 8 -1 11 2 27 0 35 -5 10
-6 11 -10 3 -10 -8 0 -4 -9 8 -21 11 -11 24 -18 27 -14 4 4 -1 11 -11 16 -9 6
-15 14 -12 19 3 5 -5 14 -17 21 -13 7 -27 17 -31 23 -6 7 -7 5 -4 -6z"/>
<path d="M580 1080 c0 -22 -9 -25 -28 -10 -7 5 -3 0 8 -13 18 -19 22 -20 30
-7 13 20 13 50 0 50 -5 0 -10 -9 -10 -20z"/>
<path d="M615 1090 c-3 -5 1 -10 9 -10 9 0 16 5 16 10 0 6 -4 10 -9 10 -6 0
-13 -4 -16 -10z"/>
<path d="M387 1054 c-3 -4 0 -13 8 -21 10 -10 12 -20 5 -38 -11 -30 0 -33 17
-6 17 28 -9 85 -30 65z"/>
<path d="M525 1040 c3 -6 -1 -7 -9 -4 -9 3 -16 1 -16 -5 0 -6 -7 -11 -15 -11
-8 0 -15 -4 -15 -10 0 -6 10 -6 27 1 34 13 45 -2 41 -53 -2 -21 -1 -38 2 -38
4 0 6 -22 6 -49 -1 -42 -3 -48 -16 -38 -8 6 -12 7 -7 2 4 -4 0 -17 -10 -27
-20 -22 -5 -24 25 -2 16 11 21 22 16 36 -8 27 15 78 35 78 37 0 79 -78 51 -95
-5 -3 -10 -11 -10 -16 0 -6 13 -1 29 11 20 13 38 19 54 15 15 -4 28 -1 36 9
19 23 42 20 73 -9 34 -31 34 -31 42 1 4 15 19 42 33 60 28 38 26 65 -6 57 -17
-4 -19 -9 -10 -25 8 -15 6 -26 -7 -46 -20 -30 -31 -15 -14 20 9 19 7 18 -13
-6 -16 -18 -27 -24 -31 -17 -4 6 -4 11 0 11 4 0 -5 9 -19 20 -14 11 -30 20
-36 20 -5 0 -14 8 -20 18 -9 15 -11 15 -20 -8 -10 -23 -11 -22 -6 10 l6 35
-25 -28 -26 -28 0 28 c0 22 -2 25 -10 13 -8 -13 -10 -12 -10 3 0 9 -4 17 -10
17 -5 0 -10 -12 -10 -26 0 -26 -1 -26 -25 -10 -26 17 -39 21 -31 8 2 -4 1 -14
-5 -22 -7 -12 -9 -10 -9 7 0 12 4 24 9 27 5 3 7 15 4 26 -3 11 -10 17 -15 14
-5 -3 -12 3 -15 15 -3 12 -10 21 -15 21 -5 0 -6 -4 -3 -10z m143 -129 c14 -45
15 -57 5 -47 -8 8 -9 13 -12 44 -1 15 -3 15 -11 2 -8 -12 -10 -9 -10 13 0 39
15 33 28 -12z m45 -38 c-5 -12 -7 -12 -14 -1 -13 20 -11 28 5 22 8 -3 12 -12
9 -21z m87 23 c0 -2 -6 -9 -13 -15 -10 -8 -14 -7 -14 4 0 8 6 15 14 15 7 0 13
-2 13 -4z"/>
<path d="M3080 1040 c-13 -8 -13 -10 2 -10 9 0 20 5 23 10 8 13 -5 13 -25 0z"/>
<path d="M450 1029 c0 -5 5 -7 10 -4 6 3 10 8 10 11 0 2 -4 4 -10 4 -5 0 -10
-5 -10 -11z"/>
<path d="M718 1013 c5 -21 7 -23 10 -9 2 10 0 22 -6 28 -6 6 -7 0 -4 -19z"/>
<path d="M3045 1008 c6 -22 5 -22 -9 -4 -14 18 -17 18 -84 -3 -39 -11 -77 -21
-86 -21 -20 0 -21 -19 -1 -26 8 -4 15 -14 15 -24 0 -27 19 -34 39 -16 10 9 22
16 28 16 6 0 14 6 16 13 3 7 6 5 6 -5 1 -22 11 -23 37 -3 13 10 15 14 5 15 -8
0 -12 2 -9 5 8 9 38 -6 32 -16 -3 -5 0 -9 6 -9 7 0 9 8 5 21 -6 19 -5 20 17 9
36 -19 58 -42 51 -53 -3 -6 -1 -7 5 -3 7 4 12 2 12 -4 0 -6 4 -9 9 -6 5 3 14
-8 20 -24 5 -17 14 -30 19 -30 5 0 14 -11 20 -24 8 -18 17 -23 39 -20 61 7
132 -47 134 -102 0 -10 3 -13 6 -6 2 6 9 10 13 7 5 -3 25 4 46 15 27 16 39 18
44 10 5 -7 10 -8 13 -3 10 16 55 8 79 -14 28 -26 68 -39 68 -23 0 7 7 9 16 6
9 -3 25 4 39 18 14 14 27 21 30 15 7 -11 65 17 65 32 0 6 6 6 19 -1 11 -5 31
-10 44 -10 14 0 30 -7 37 -15 10 -12 17 -11 50 10 21 13 40 22 43 19 2 -3 7 7
9 21 3 14 1 28 -3 31 -5 3 -9 0 -9 -5 0 -6 -5 -11 -11 -11 -7 0 -9 9 -6 21 4
17 3 18 -9 8 -9 -7 -12 -20 -9 -33 6 -20 6 -20 -12 2 -14 17 -21 20 -30 11
-17 -17 -44 -4 -37 18 3 10 -2 7 -10 -7 -8 -14 -15 -19 -16 -12 0 6 -6 12 -14
12 -8 0 -17 -6 -20 -12 -3 -7 -3 -1 0 15 5 23 3 27 -17 26 -23 0 -23 -1 -4 -9
11 -5 15 -9 8 -9 -6 -1 -14 -9 -16 -18 -4 -17 -5 -17 -6 0 -1 15 -5 16 -21 7
-11 -6 -20 -8 -20 -5 0 3 -9 1 -20 -5 -16 -8 -18 -8 -14 4 3 8 -4 24 -15 35
-12 12 -21 26 -21 33 0 6 -3 9 -6 5 -9 -8 6 -48 16 -42 4 3 10 -1 13 -8 9 -24
-21 -15 -34 10 -14 26 -32 32 -22 6 4 -11 3 -14 -5 -9 -7 4 -12 2 -12 -4 0 -6
7 -10 16 -8 10 2 19 -2 21 -9 3 -8 -4 -10 -19 -8 -17 3 -28 -3 -41 -23 -15
-22 -17 -23 -12 -5 3 12 1 24 -5 28 -6 3 -8 10 -5 15 3 4 -2 10 -10 14 -11 4
-13 11 -6 29 8 20 6 24 -6 23 -9 0 -18 5 -21 13 -2 8 0 11 6 7 5 -3 21 -2 34
3 20 8 11 16 -14 12 -4 0 -5 7 -2 17 4 13 1 11 -14 -6 -12 -12 -27 -20 -35
-16 -8 3 -18 1 -21 -5 -4 -6 -13 -8 -22 -4 -14 5 -54 -31 -54 -50 0 -5 8 1 18
13 18 23 55 19 46 -5 -3 -7 3 -16 14 -19 14 -5 18 -13 14 -31 -3 -20 -7 -23
-18 -14 -15 12 -19 -1 -16 -46 2 -18 1 -19 -9 -2 -5 9 -7 23 -3 30 4 6 -3 2
-15 -10 -11 -12 -21 -27 -21 -33 0 -6 -4 -8 -10 -5 -5 3 -11 23 -11 43 -1 36
-1 37 -8 7 -7 -29 -7 -29 -13 -6 -4 15 -1 33 10 50 15 23 15 24 1 13 -13 -10
-19 -9 -29 3 -7 8 -18 15 -26 15 -7 0 -19 7 -28 15 -13 14 -16 14 -24 -1 -7
-13 -10 -10 -15 15 -5 22 -14 32 -32 37 -30 8 -44 -1 -27 -18 7 -7 12 -16 12
-22 0 -5 -9 0 -20 12 -12 12 -17 28 -14 39 5 15 4 16 -5 3 -6 -8 -11 -10 -12
-5 -1 6 -2 17 -3 25 -2 8 -3 22 -4 31 -2 19 -39 32 -45 16 -2 -8 -12 -6 -30 6
-34 22 -40 22 -32 -5z m457 -116 c-7 -5 -10 -16 -6 -28 6 -15 4 -17 -6 -7 -15
14 -7 43 12 43 11 0 11 -2 0 -8z m40 -80 c-7 -2 -10 -8 -7 -12 3 -5 0 -12 -7
-16 -7 -4 -10 -4 -6 1 4 4 4 13 -2 20 -5 6 -7 21 -3 33 l6 23 15 -22 c11 -17
12 -24 4 -27z m-186 2 c-3 -9 -6 -23 -7 -32 0 -13 -2 -13 -8 3 -9 23 -4 45 11
45 6 0 7 -7 4 -16z m274 -35 c0 -5 -4 -9 -10 -9 -5 0 -10 7 -10 16 0 8 5 12
10 9 6 -3 10 -10 10 -16z m38 8 c-9 -7 -16 -21 -15 -31 1 -11 -3 -21 -10 -23
-17 -6 -4 39 15 55 9 6 18 12 21 12 3 0 -2 -6 -11 -13z m105 -26 c-3 -11 -12
-22 -20 -25 -7 -3 -12 -2 -10 2 2 4 7 15 10 25 9 23 26 22 20 -2z m-86 -22 c0
-21 -3 -26 -9 -16 -4 9 -5 22 -2 31 9 23 11 20 11 -15z m-67 11 c0 -5 -4 -10
-9 -10 -5 0 -7 -10 -4 -22 5 -18 3 -20 -7 -12 -7 7 -9 21 -5 33 6 21 25 29 25
11z"/>
<path d="M3755 1011 c-8 -27 -4 -33 12 -16 6 6 7 18 3 25 -6 9 -10 7 -15 -9z"/>
<path d="M171 1013 c-1 -6 -4 -20 -7 -30 -5 -17 -5 -17 6 0 6 10 9 23 6 30 -3
9 -5 9 -5 0z"/>
<path d="M595 1010 c-3 -5 3 -10 15 -10 12 0 18 5 15 10 -3 6 -10 10 -15 10
-5 0 -12 -4 -15 -10z"/>
<path d="M14 1003 c7 -7 87 -5 95 3 2 2 -20 4 -49 4 -29 0 -50 -3 -46 -7z"/>
<path d="M1095 980 c3 -5 11 -10 16 -10 6 0 7 5 4 10 -3 6 -11 10 -16 10 -6 0
-7 -4 -4 -10z"/>
<path d="M1125 968 c-7 -15 -18 -23 -33 -22 -16 0 -21 -4 -17 -13 3 -8 5 -20
5 -26 0 -6 14 3 31 21 17 17 29 38 27 47 -2 12 -5 11 -13 -7z"/>
<path d="M3210 974 c0 -8 5 -12 10 -9 6 4 8 11 5 16 -9 14 -15 11 -15 -7z"/>
<path d="M3850 982 c0 -9 50 -35 56 -29 2 2 -10 11 -26 21 -17 9 -30 13 -30 8z"/>
<path d="M181 964 c0 -11 3 -14 6 -6 3 7 2 16 -1 19 -3 4 -6 -2 -5 -13z"/>
<path d="M1060 970 c0 -5 5 -10 10 -10 6 0 10 5 10 10 0 6 -4 10 -10 10 -5 0
-10 -4 -10 -10z"/>
<path d="M1170 980 c-10 -33 -7 -38 16 -28 13 6 21 15 17 21 -3 5 -9 4 -13 -3
-6 -9 -9 -9 -13 1 -3 8 -6 12 -7 9z"/>
<path d="M3612 972 c-7 -5 -14 -18 -16 -29 -4 -18 -2 -19 20 -9 13 6 19 12 14
14 -5 2 -6 10 -3 18 6 16 3 17 -15 6z"/>
<path d="M3645 970 c3 -5 8 -10 11 -10 2 0 4 5 4 10 0 6 -5 10 -11 10 -5 0 -7
-4 -4 -10z"/>
<path d="M3916 965 c4 -8 12 -15 20 -15 8 0 14 -5 14 -12 0 -6 3 -8 7 -5 7 8
-25 47 -38 47 -5 0 -6 -7 -3 -15z"/>
<path d="M22 950 c0 -14 2 -19 5 -12 2 6 2 18 0 25 -3 6 -5 1 -5 -13z"/>
<path d="M3720 961 c0 -17 18 -21 24 -6 3 9 0 15 -9 15 -8 0 -15 -4 -15 -9z"/>
<path d="M270 946 c0 -2 7 -6 15 -10 8 -3 15 -1 15 4 0 6 -7 10 -15 10 -8 0
-15 -2 -15 -4z"/>
<path d="M174 914 c3 -9 6 -21 7 -27 0 -7 4 -3 9 8 13 29 12 35 -6 35 -11 0
-14 -5 -10 -16z"/>
<path d="M3070 920 c0 -5 7 -10 15 -10 8 0 15 5 15 10 0 6 -7 10 -15 10 -8 0
-15 -4 -15 -10z"/>
<path d="M1010 912 c0 -5 -14 -8 -30 -7 -17 1 -28 0 -26 -3 3 -2 -6 -14 -20
-27 -27 -25 -31 -37 -9 -29 8 4 15 13 15 21 0 13 3 13 15 3 12 -10 15 -10 16
1 0 8 4 5 9 -6 5 -11 9 -14 9 -7 1 18 15 15 42 -9 24 -20 24 -20 2 -9 -29 13
-30 -1 -3 -18 28 -17 37 -9 37 35 0 21 -2 30 -4 21 -7 -28 -23 -21 -23 9 0 26
-1 26 -16 7 -15 -18 -15 -18 -9 4 4 12 4 22 1 22 -3 0 -6 -4 -6 -8z"/>
<path d="M305 901 c-3 -5 -1 -12 5 -16 5 -3 10 1 10 9 0 18 -6 21 -15 7z"/>
<path d="M460 895 c0 -8 4 -15 10 -15 5 0 7 7 4 15 -4 8 -8 15 -10 15 -2 0 -4
-7 -4 -15z"/>
<path d="M3377 895 c-4 -11 -10 -27 -13 -35 -3 -8 1 -5 11 8 9 12 15 28 13 34
-3 7 -7 4 -11 -7z"/>
<path d="M3826 885 c4 -8 11 -15 16 -15 6 0 5 6 -2 15 -7 8 -14 15 -16 15 -2
0 -1 -7 2 -15z"/>
<path d="M3733 875 c10 -7 12 -17 5 -34 -4 -13 -6 -26 -3 -29 3 -3 5 0 5 7 0
7 4 10 9 7 7 -5 31 35 31 53 0 4 -14 8 -30 7 -23 -1 -27 -3 -17 -11z"/>
<path d="M200 871 c0 -7 -4 -9 -10 -6 -12 8 -13 -15 -1 -33 6 -10 10 -7 15 13
4 15 5 30 1 33 -3 3 -5 0 -5 -7z"/>
<path d="M894 865 c-10 -26 1 -35 13 -10 6 14 7 25 2 25 -5 0 -12 -7 -15 -15z"/>
<path d="M3917 869 c7 -7 15 -10 18 -7 3 3 -2 9 -12 12 -14 6 -15 5 -6 -5z"/>
<path d="M3790 866 c0 -2 15 -9 33 -15 29 -10 30 -9 13 4 -18 14 -46 20 -46
11z"/>
<path d="M3117 846 c-4 -10 -1 -13 9 -9 15 6 19 23 5 23 -5 0 -11 -7 -14 -14z"/>
<path d="M3875 840 c10 -11 20 -20 23 -20 3 0 -3 9 -13 20 -10 11 -20 20 -23
20 -3 0 3 -9 13 -20z"/>
<path d="M571 826 c-5 -13 -17 -26 -25 -29 -9 -4 -16 -16 -16 -27 0 -15 7 -20
25 -20 17 0 23 4 19 14 -3 9 -13 12 -22 9 -12 -4 -10 0 5 13 12 10 24 29 28
42 8 29 -3 28 -14 -2z"/>
<path d="M957 830 c3 -11 7 -20 9 -20 2 0 4 9 4 20 0 11 -4 20 -9 20 -5 0 -7
-9 -4 -20z"/>
<path d="M477 821 c-3 -12 -2 -23 3 -26 12 -7 22 27 12 37 -6 6 -12 1 -15 -11z"/>
<path d="M3160 805 c-11 -13 -10 -14 4 -9 9 3 16 10 16 15 0 13 -6 11 -20 -6z"/>
<path d="M1443 795 c0 -8 4 -12 9 -9 5 3 6 10 3 15 -9 13 -12 11 -12 -6z"/>
<path d="M3118 783 c7 -3 16 -2 19 1 4 3 -2 6 -13 5 -11 0 -14 -3 -6 -6z"/>
<path d="M332 758 c5 -15 28 -23 28 -10 0 5 -7 13 -16 16 -10 4 -14 1 -12 -6z"/>
<path d="M600 750 c0 -5 5 -10 10 -10 6 0 10 5 10 10 0 6 -4 10 -10 10 -5 0
-10 -4 -10 -10z"/>
<path d="M3040 745 c-8 -9 -8 -15 -2 -15 12 0 26 19 19 26 -2 2 -10 -2 -17
-11z"/>
<path d="M271 734 c0 -11 3 -14 6 -6 3 7 2 16 -1 19 -3 4 -6 -2 -5 -13z"/>
<path d="M1082 734 c-11 -12 -10 -15 2 -20 19 -7 36 3 36 22 0 18 -21 17 -38
-2z"/>
<path d="M1157 733 c-3 -5 -3 -21 0 -36 4 -21 8 -25 14 -16 6 11 11 11 21 1 6
-6 17 -12 23 -12 5 0 3 5 -5 10 -13 9 -12 13 9 30 13 11 19 20 13 20 -5 0 -16
-7 -23 -16 -12 -15 -15 -14 -30 5 -10 12 -20 18 -22 14z"/>
<path d="M2840 729 c0 -5 5 -7 10 -4 6 3 10 8 10 11 0 2 -4 4 -10 4 -5 0 -10
-5 -10 -11z"/>
<path d="M1560 703 c0 -13 5 -23 11 -23 8 0 8 -5 -1 -15 -10 -12 -9 -20 4 -40
15 -23 15 -25 -3 -35 -29 -15 -38 -12 -15 6 13 11 15 17 6 20 -6 3 -10 9 -8
12 2 4 -8 16 -23 26 l-26 20 19 -22 c15 -18 16 -24 6 -37 -7 -8 -9 -15 -6 -15
16 0 -28 -34 -48 -37 -22 -3 -56 -37 -56 -55 0 -6 12 1 26 16 15 14 32 27 38
27 6 1 20 3 31 5 11 2 29 4 39 6 11 2 29 12 41 23 12 11 30 25 41 32 17 10 15
11 -15 10 -22 -1 -36 3 -39 13 -5 13 -3 13 13 0 17 -14 18 -13 12 3 -6 15 -4
16 13 7 16 -9 20 -8 20 7 0 15 2 15 15 -3 14 -18 14 -17 3 9 -6 15 -17 26 -24
23 -7 -3 -15 2 -18 11 -4 9 -13 13 -23 9 -9 -4 -20 -1 -25 6 -5 9 -8 6 -8 -9z"/>
<path d="M1253 685 c0 -14 4 -24 9 -23 5 2 9 7 9 11 -1 4 -1 14 -1 22 0 8 -4
15 -9 15 -5 0 -8 -11 -8 -25z"/>
<path d="M1308 693 c6 -2 18 -2 25 0 6 3 1 5 -13 5 -14 0 -19 -2 -12 -5z"/>
<path d="M2810 690 c0 -5 5 -10 10 -10 6 0 10 5 10 10 0 6 -4 10 -10 10 -5 0
-10 -4 -10 -10z"/>
<path d="M2750 670 c-8 -15 -8 -20 3 -20 7 0 13 9 13 20 0 11 -1 20 -3 20 -1
0 -7 -9 -13 -20z"/>
<path d="M2784 679 c-3 -6 0 -18 9 -26 13 -13 14 -12 10 11 -6 29 -9 31 -19
15z"/>
<path d="M3950 680 c0 -4 11 -10 25 -12 14 -3 25 -2 25 2 0 4 -11 10 -25 12
-14 3 -25 2 -25 -2z"/>
<path d="M1445 670 c-3 -5 -1 -10 4 -10 6 0 11 5 11 10 0 6 -2 10 -4 10 -3 0
-8 -4 -11 -10z"/>
<path d="M3898 663 c-4 -15 -16 -18 -72 -18 -51 0 -63 -3 -51 -11 22 -16 20
-37 -2 -26 -15 8 -55 9 -73 2 -3 -1 -14 -3 -25 -4 -10 0 -25 -12 -32 -26 -8
-15 -13 -19 -14 -10 -1 8 -5 2 -9 -15 l-8 -30 -1 37 c0 20 -6 40 -13 44 -8 5
-9 0 -6 -14 4 -12 2 -20 -3 -16 -5 3 -9 13 -10 22 0 11 -2 12 -6 4 -2 -6 -9
-10 -14 -7 -5 3 -19 1 -31 -6 -16 -9 -23 -9 -26 0 -5 14 -32 15 -32 0 0 -7
-11 -9 -27 -6 -24 4 -60 -7 -73 -24 -3 -4 -14 -9 -25 -12 -19 -5 -19 -5 3 -12
12 -4 22 -15 22 -26 0 -23 -36 -45 -44 -26 -3 8 -9 6 -20 -7 -13 -16 -16 -17
-16 -4 0 8 10 19 22 25 19 8 20 10 4 16 -11 5 -15 3 -10 -5 5 -8 2 -9 -10 -5
-10 4 -15 3 -11 -3 3 -6 2 -10 -3 -10 -11 0 -10 49 1 68 18 27 -21 44 -47 20
-14 -13 -10 -48 5 -48 5 0 9 -24 10 -52 0 -29 3 -47 6 -40 7 17 23 15 23 -3 0
-8 -9 -15 -20 -15 -16 0 -20 7 -20 31 0 16 -4 28 -8 25 -5 -3 -7 8 -4 23 3 25
1 29 -22 29 -14 0 -26 -4 -26 -9 0 -5 5 -9 10 -9 6 0 10 -9 10 -20 0 -11 7
-23 15 -26 20 -8 19 -30 -1 -38 -27 -10 -72 -7 -77 7 -4 10 -6 10 -6 0 -1 -19
-19 -16 -24 5 -4 16 -5 16 -6 0 -1 -13 -10 -18 -30 -18 -20 0 -31 6 -34 18 -4
16 -5 16 -6 0 -1 -23 -18 -23 -24 0 -4 14 -5 15 -6 1 -2 -25 -50 -30 -72 -8
-11 11 -26 20 -34 20 -28 3 -33 4 -41 11 -4 4 -1 14 6 23 7 9 10 18 7 22 -4 3
-13 -8 -20 -25 l-13 -30 -24 19 c-37 27 -47 23 -16 -6 18 -17 34 -24 47 -20
11 4 19 2 19 -4 0 -6 -5 -11 -11 -11 -6 0 -9 -7 -5 -15 5 -13 2 -14 -15 -4
-12 6 -19 7 -15 1 3 -5 0 -15 -8 -21 -27 -22 -331 4 -497 44 -35 8 -76 15 -91
15 -26 0 -28 -3 -28 -41 l0 -41 -112 7 c-62 4 -118 10 -124 14 -9 4 -6 18 8
48 19 40 23 43 62 44 32 2 35 3 12 6 -52 8 -72 -4 -94 -54 l-21 -48 27 -7 c15
-4 104 -14 197 -23 283 -27 370 -37 380 -46 5 -5 -3 -9 -20 -10 -26 0 -27 -2
-10 -9 19 -8 19 -9 -3 -9 -13 -1 -20 -5 -17 -11 6 -10 -30 -8 -295 16 -210 20
-468 52 -482 60 -6 4 -8 -1 -6 -12 2 -15 18 -22 63 -30 33 -6 53 -13 45 -16
-8 -3 -5 -3 8 -1 12 2 40 -1 60 -7 75 -20 292 -39 567 -50 154 -6 298 -16 320
-22 22 -6 72 -11 110 -11 54 1 62 -1 35 -6 l-35 -8 30 -5 c32 -6 -114 0 -180
7 -32 3 -35 2 -15 -4 14 -5 49 -9 78 -10 50 -1 52 -2 40 -21 -14 -21 -47 -27
-64 -10 -6 6 -22 6 -44 0 -19 -6 -60 -8 -91 -5 -45 5 -60 3 -74 -11 -14 -14
-18 -15 -26 -3 -7 11 -11 11 -22 -5 -13 -18 -14 -18 -20 3 -3 11 -13 21 -23
21 -16 0 -15 -2 4 -20 16 -16 20 -28 16 -53 -4 -24 -3 -28 5 -17 9 13 11 13
11 -1 0 -8 -5 -20 -12 -27 -16 -16 -4 -25 21 -17 22 7 31 55 11 55 -5 0 -10 5
-10 10 0 20 27 9 39 -16 9 -20 9 -30 0 -40 -9 -11 107 -13 725 -14 l737 0 -2
162 c-1 107 -5 166 -13 170 -7 5 -6 8 4 9 10 0 8 3 -5 9 -19 8 -19 9 -1 9 15
1 16 4 6 16 -9 10 -9 15 -1 15 6 0 11 19 11 46 0 43 -1 45 -22 38 -13 -4 -40
-7 -60 -6 -21 0 -38 -3 -38 -8 0 -5 -16 -6 -35 -3 -28 4 -35 2 -35 -11 0 -9
-4 -16 -10 -16 -5 0 -7 7 -4 15 4 10 0 15 -12 16 -11 1 8 6 41 13 65 13 85 22
85 38 0 6 -12 3 -26 -7 -25 -16 -26 -16 -19 4 8 26 -3 27 -21 4 -9 -13 -13
-14 -14 -4 0 7 -6 11 -15 7 -8 -3 -15 -1 -15 5 0 5 7 12 15 15 8 4 15 13 15
21 0 8 5 11 11 7 8 -4 8 -9 0 -17 -16 -16 -13 -31 3 -18 7 6 22 8 32 4 16 -6
17 -4 7 8 -8 9 -9 20 -3 29 8 13 10 13 10 0 0 -9 13 -23 29 -33 28 -16 29 -16
35 6 6 21 7 21 20 4 17 -22 22 -14 25 39 1 26 -4 46 -13 53 -20 17 -39 4 -33
-21 5 -18 4 -19 -12 -4 -22 20 -38 21 -22 2 6 -7 8 -21 5 -31 -4 -10 -1 -21 7
-27 12 -8 11 -9 -1 -5 -8 2 -16 16 -18 30 -3 28 -17 36 -25 15 -2 -7 -8 -10
-12 -6 -5 4 3 18 16 31 25 23 37 57 21 57 -5 0 -12 -8 -14 -17z m92 -49 c0 -8
-5 -12 -10 -9 -6 4 -8 11 -5 16 9 14 15 11 15 -7z m-180 -55 c0 -4 -10 -5 -22
-1 -21 5 -22 4 -9 -11 12 -15 10 -22 -3 -14 -3 1 -15 -8 -28 -21 -29 -26 -46
-17 -21 11 17 19 17 20 -4 8 -19 -10 -23 -9 -23 4 0 8 6 15 13 16 6 0 3 4 -8
9 -27 12 -2 12 28 1 21 -8 26 -6 30 10 5 18 8 19 26 7 12 -7 21 -16 21 -19z
m-550 1 c0 -5 -4 -10 -10 -10 -5 0 -10 5 -10 10 0 6 5 10 10 10 6 0 10 -4 10
-10z m277 -37 c-3 -10 -5 -4 -5 12 0 17 2 24 5 18 2 -7 2 -21 0 -30z m60 15
c-3 -8 -6 -5 -6 6 -1 11 2 17 5 13 3 -3 4 -12 1 -19z m69 -15 c-3 -3 -13 -2
-23 2 -17 8 -17 8 0 12 9 3 18 10 18 16 1 7 3 4 6 -6 3 -10 2 -21 -1 -24z
m-248 20 c-10 -2 -18 -9 -18 -14 0 -5 -4 -9 -10 -9 -5 0 -7 7 -4 15 4 8 16 14
28 14 16 -1 17 -2 4 -6z m22 -23 c0 -5 -5 -10 -11 -10 -5 0 -7 5 -4 10 3 6 8
10 11 10 2 0 4 -4 4 -10z m64 4 c25 -10 19 -19 -14 -20 -29 -1 -37 6 -23 19 8
9 17 9 37 1z m97 -28 c5 3 9 0 9 -5 0 -6 -7 -11 -15 -11 -8 0 -15 8 -14 18 0
10 3 12 6 4 2 -6 9 -10 14 -6z m93 -2 c3 -8 2 -12 -4 -9 -6 3 -10 10 -10 16 0
14 7 11 14 -7z m-34 -4 c0 -5 -2 -10 -4 -10 -3 0 -8 5 -11 10 -3 6 -1 10 4 10
6 0 11 -4 11 -10z m-290 -33 c0 -8 -3 -16 -6 -20 -8 -8 -34 3 -34 15 0 6 7 5
15 -2 13 -11 14 -10 9 4 -3 9 -1 16 5 16 6 0 11 -6 11 -13z m254 -9 c-3 -4 15
-11 38 -17 l43 -10 -54 5 c-29 3 -68 11 -85 19 l-31 13 46 -1 c26 -1 45 -5 43
-9z m146 1 c12 -9 12 -10 -4 -5 -11 4 -23 2 -26 -5 -5 -8 -15 -7 -36 5 l-29
15 40 0 c22 1 47 -4 55 -10z m-875 -29 c7 0 16 -7 19 -16 3 -8 11 -12 17 -8 6
3 42 7 80 8 51 2 69 -1 69 -11 0 -7 -11 -13 -25 -13 -14 0 -25 -4 -25 -8 0 -5
10 -8 23 -6 12 1 25 3 30 3 4 1 7 10 7 20 0 19 8 20 150 19 132 0 150 -2 150
-17 1 -14 2 -14 14 1 7 10 16 15 20 11 10 -10 86 -10 86 0 0 5 -7 7 -15 4 -16
-7 -30 9 -16 17 5 4 24 -7 42 -23 28 -26 30 -32 19 -46 -7 -9 -19 -14 -26 -11
-7 3 -15 0 -18 -7 -3 -7 -4 -3 -1 9 4 14 0 21 -10 21 -10 0 -14 -7 -10 -21 3
-13 0 -11 -8 6 -13 27 -29 26 -40 -2 -3 -9 -6 -2 -7 15 -1 23 -3 26 -9 12 -9
-25 -25 -23 -33 5 -5 19 -6 17 -7 -11 -1 -31 -2 -33 -14 -17 -8 11 -19 15 -30
10 -26 -9 -21 -24 13 -37 17 -6 30 -17 30 -24 0 -7 5 -13 11 -13 7 0 10 12 7
30 -3 17 -1 30 4 30 4 0 8 -11 8 -24 0 -14 5 -28 10 -31 6 -3 10 -2 10 2 0 5
10 9 23 10 12 0 59 8 105 18 46 9 86 15 89 12 2 -3 -16 -9 -42 -12 -25 -4 -72
-16 -103 -26 -77 -25 -19 -15 133 22 65 16 130 37 143 45 14 9 22 12 19 7 -4
-6 12 -9 36 -9 31 1 41 5 39 15 -6 26 25 -7 32 -34 4 -14 11 -25 17 -25 8 0 7
-5 -1 -15 -7 -8 -28 -15 -46 -15 -19 0 -34 -4 -34 -10 0 -5 -18 -18 -39 -29
-30 -14 -67 -19 -153 -22 -155 -5 -749 -1 -755 5 -2 2 3 18 12 36 23 44 6 63
-49 57 -38 -3 -183 5 -286 17 -25 3 -97 8 -160 12 -106 6 -218 20 -177 23 9 0
17 8 17 16 0 23 21 27 71 16 46 -10 261 -36 389 -46 68 -5 121 -11 175 -19 49
-7 59 18 20 54 -14 13 -25 20 -25 15 0 -5 -2 -6 -5 -3 -3 3 -2 14 2 24 7 17 8
17 11 2 2 -10 9 -18 17 -18z m425 10 c0 -5 -7 -7 -15 -4 -8 4 -15 8 -15 10 0
2 7 4 15 4 8 0 15 -4 15 -10z m600 0 c0 -5 -5 -10 -11 -10 -5 0 -7 5 -4 10 3
6 8 10 11 10 2 0 4 -4 4 -10z m55 -9 c-3 -23 -19 -23 -33 -1 -11 18 -10 20 12
18 15 -1 23 -8 21 -17z m-418 -17 c-3 -3 -12 -4 -19 -1 -8 3 -5 6 6 6 11 1 17
-2 13 -5z m408 -34 c-3 -5 -10 -10 -16 -10 -5 0 -9 5 -9 10 0 6 7 10 16 10 8
0 12 -4 9 -10z m-18 -26 c-3 -3 -12 -4 -19 -1 -8 3 -5 6 6 6 11 1 17 -2 13 -5z
m33 -39 c0 -8 -4 -15 -10 -15 -5 0 -10 7 -10 15 0 8 5 15 10 15 6 0 10 -7 10
-15z m-70 -55 c-24 -15 -36 -11 -14 4 10 8 21 12 24 10 2 -3 -2 -9 -10 -14z
m-333 -66 c-3 -3 -12 -4 -19 -1 -8 3 -5 6 6 6 11 1 17 -2 13 -5z m-106 -32
c-7 -2 -18 1 -23 6 -8 8 -4 9 13 5 13 -4 18 -8 10 -11z m39 8 c0 -5 -4 -10
-10 -10 -5 0 -10 5 -10 10 0 6 5 10 10 10 6 0 10 -4 10 -10z m60 -6 c0 -2 -11
-4 -25 -4 -14 0 -25 4 -25 9 0 4 11 6 25 3 14 -2 25 -6 25 -8z m-697 -61 c-7
-2 -19 -2 -25 0 -7 3 -2 5 12 5 14 0 19 -2 13 -5z"/>
<path d="M3110 390 c8 -5 29 -10 46 -10 41 0 84 -21 84 -42 0 -12 10 -18 38
-20 36 -4 36 -4 12 -15 -22 -10 -20 -11 24 -10 43 0 47 2 30 13 -42 28 -62 49
-57 57 3 5 -2 7 -10 5 -9 -2 -23 6 -32 17 -14 17 -16 17 -11 3 3 -12 0 -18
-10 -18 -8 0 -13 4 -10 9 7 11 -28 21 -79 21 -29 0 -36 -3 -25 -10z"/>
<path d="M3351 384 c0 -11 3 -14 6 -6 3 7 2 16 -1 19 -3 4 -6 -2 -5 -13z"/>
<path d="M3000 369 c0 -5 5 -7 10 -4 6 3 10 8 10 11 0 2 -4 4 -10 4 -5 0 -10
-5 -10 -11z"/>
<path d="M3105 370 c3 -5 11 -10 16 -10 6 0 7 5 4 10 -3 6 -11 10 -16 10 -6 0
-7 -4 -4 -10z"/>
<path d="M3216 337 c3 -10 9 -15 12 -12 3 3 0 11 -7 18 -10 9 -11 8 -5 -6z"/>
<path d="M3860 329 c0 -5 5 -7 10 -4 6 3 10 8 10 11 0 2 -4 4 -10 4 -5 0 -10
-5 -10 -11z"/>
<path d="M1480 655 c0 -8 5 -15 11 -15 6 0 9 -7 5 -15 -3 -8 -1 -15 3 -15 18
0 18 28 0 43 -16 14 -19 15 -19 2z"/>
<path d="M420 651 c0 -6 4 -13 10 -16 6 -3 7 1 4 9 -7 18 -14 21 -14 7z"/>
<path d="M3930 650 c0 -5 5 -10 10 -10 6 0 10 5 10 10 0 6 -4 10 -10 10 -5 0
-10 -4 -10 -10z"/>
<path d="M164 624 c15 -14 31 -22 35 -19 7 7 -39 45 -54 44 -5 0 3 -11 19 -25z"/>
<path d="M825 640 c-8 -13 5 -13 25 0 13 8 13 10 -2 10 -9 0 -20 -4 -23 -10z"/>
<path d="M1158 643 c-10 -2 -18 -9 -18 -14 0 -6 -6 -7 -12 -3 -8 4 -8 2 1 -7
10 -11 15 -11 18 -1 3 6 11 12 19 12 8 0 14 5 14 10 0 6 -1 9 -2 9 -2 -1 -11
-3 -20 -6z"/>
<path d="M72 621 c3 -17 58 -29 58 -13 0 6 -10 8 -22 4 -16 -4 -20 -2 -16 10
4 9 0 15 -8 15 -8 0 -13 -7 -12 -16z"/>
<path d="M250 630 c0 -6 5 -10 11 -10 8 0 8 -4 1 -13 -8 -10 -6 -13 7 -14 14
-1 17 4 14 17 -5 20 -33 36 -33 20z"/>
<path d="M720 632 c0 -15 32 -24 44 -12 7 7 7 10 -1 10 -6 0 -18 3 -27 6 -9 3
-16 2 -16 -4z"/>
<path d="M1215 631 c-3 -6 -10 -9 -15 -6 -12 7 -50 -12 -50 -25 0 -6 9 -10 20
-10 21 0 28 -24 10 -35 -5 -3 -10 -17 -10 -31 0 -23 3 -24 53 -22 35 1 42 2
20 5 -18 2 -33 10 -33 16 0 7 -4 6 -10 -3 -6 -10 -10 -11 -10 -2 0 6 9 21 20
32 12 12 18 26 14 31 -4 8 2 9 17 4 17 -4 20 -4 10 4 -8 5 -16 17 -17 26 -3
23 -11 29 -19 16z"/>
<path d="M1339 633 c-1 -5 -1 -11 0 -15 2 -12 -13 -9 -29 5 -8 6 -7 2 3 -9 10
-12 20 -32 22 -44 5 -28 21 -39 46 -33 11 3 19 0 19 -7 0 -8 7 -5 18 7 9 11
32 28 49 38 23 13 29 21 20 27 -18 12 -34 9 -17 -3 11 -7 5 -8 -22 -5 -20 3
-39 2 -42 -3 -3 -4 6 -7 19 -5 15 1 23 -2 19 -8 -3 -5 -9 -7 -12 -4 -3 3 -12
0 -20 -6 -11 -10 -16 -8 -25 7 -6 11 -12 25 -12 30 0 6 -7 10 -15 10 -8 1 -14
6 -12 13 1 7 0 12 -3 12 -3 0 -6 -3 -6 -7z m25 -37 c-3 -8 -1 -17 5 -21 17
-10 13 -25 -4 -19 -8 4 -13 10 -10 14 3 5 0 12 -6 16 -8 4 -7 9 2 15 19 12 19
11 13 -5z"/>
<path d="M671 613 c-7 -8 -11 -16 -8 -19 2 -2 10 2 17 11 17 20 9 27 -9 8z"/>
<path d="M3074 618 c-3 -5 -1 -15 5 -21 8 -8 11 -8 11 2 0 8 6 11 16 7 9 -4
14 -1 12 6 -5 15 -36 19 -44 6z"/>
<path d="M316 605 c-8 -23 1 -35 21 -28 11 4 14 3 9 -5 -4 -7 -2 -12 3 -12 17
0 13 25 -8 44 -17 15 -19 16 -25 1z"/>
<path d="M3030 610 c0 -5 7 -10 16 -10 8 0 12 5 9 10 -3 6 -10 10 -16 10 -5 0
-9 -4 -9 -10z"/>
<path d="M3126 602 c-6 -17 -3 -27 11 -37 21 -16 31 -11 16 7 -6 7 -13 22 -15
33 -4 19 -5 18 -12 -3z"/>
<path d="M3207 613 c-4 -3 -7 -11 -7 -17 0 -6 5 -5 12 2 6 6 9 14 7 17 -3 3
-9 2 -12 -2z"/>
<path d="M613 604 c3 -4 2 -15 -4 -25 -7 -15 -6 -19 6 -19 8 0 15 -4 15 -10 0
-19 -37 -10 -48 13 -8 16 -11 18 -11 5 -1 -9 -7 -18 -13 -21 -28 -10 4 -18 78
-20 44 -1 82 -6 86 -12 4 -5 7 15 6 45 -1 47 -2 50 -7 20 -5 -29 -10 -35 -32
-35 -14 0 -34 7 -44 17 -10 10 -13 18 -7 18 7 0 12 5 12 11 0 5 -4 7 -10 4 -5
-3 -10 -1 -10 4 0 6 -5 11 -12 11 -6 0 -8 -3 -5 -6z"/>
<path d="M174 575 c9 -13 16 -44 16 -69 0 -44 0 -45 -37 -49 l-38 -4 42 -1
c34 -2 43 2 48 18 3 11 3 25 -1 32 -5 7 -2 9 8 5 9 -3 53 -8 99 -12 46 -3 94
-8 107 -11 12 -2 22 0 22 6 0 5 -19 10 -43 10 -78 0 -197 25 -197 41 0 6 5 7
11 3 7 -4 1 7 -12 25 -27 37 -49 42 -25 6z"/>
<path d="M740 576 c0 -35 15 -40 16 -5 1 16 -3 29 -7 29 -5 0 -9 -11 -9 -24z"/>
<path d="M1074 589 c-5 -8 37 -17 54 -11 7 2 12 7 12 10 0 9 -61 9 -66 1z"/>
<path d="M1297 586 c-7 -19 11 -32 24 -19 6 6 5 14 -4 22 -12 9 -16 8 -20 -3z"/>
<path d="M1925 590 c-3 -6 1 -7 9 -4 18 7 21 14 7 14 -6 0 -13 -4 -16 -10z"/>
<path d="M3150 592 c0 -4 14 -20 30 -35 19 -18 30 -24 30 -15 0 8 -10 24 -23
36 -24 23 -37 28 -37 14z"/>
<path d="M388 578 c-8 -24 15 -36 39 -21 13 9 23 11 23 5 0 -6 -8 -13 -17 -16
-10 -2 -4 -4 12 -4 39 1 65 -10 65 -28 0 -9 -11 -14 -30 -14 -16 0 -30 -4 -30
-10 0 -6 53 -9 143 -9 147 2 149 5 12 17 -85 8 -103 22 -69 56 15 15 14 16
-14 11 -17 -3 -33 -1 -36 4 -3 4 -21 7 -41 4 -20 -2 -35 1 -35 7 0 14 -17 13
-22 -2z"/>
<path d="M8 573 c7 -3 16 -2 19 1 4 3 -2 6 -13 5 -11 0 -14 -3 -6 -6z"/>
<path d="M1154 565 c-9 -21 -2 -26 13 -10 8 9 9 16 3 20 -6 3 -13 -1 -16 -10z"/>
<path d="M1890 572 c0 -6 9 -12 20 -15 11 -3 20 -3 20 -1 0 2 -9 8 -20 14 -11
6 -20 7 -20 2z"/>
<path d="M1231 556 c-12 -14 -11 -16 8 -16 13 0 19 -4 16 -10 -5 -7 9 -10 38
-8 56 4 53 28 -3 28 -21 0 -40 5 -42 11 -2 7 -9 5 -17 -5z"/>
<path d="M1699 563 c-1 -5 -1 -11 0 -15 0 -5 -6 -9 -14 -9 -8 -1 -19 -3 -25
-4 -5 -1 -25 -4 -42 -5 -32 -3 -32 -3 -5 -7 15 -2 27 -10 27 -16 0 -7 4 -6 10
3 8 13 13 13 31 2 18 -11 24 -11 38 2 10 9 28 16 41 16 13 0 20 3 16 7 -4 4
-21 7 -39 8 -20 0 -31 5 -29 13 1 6 0 12 -3 12 -3 0 -6 -3 -6 -7z"/>
<path d="M1792 561 c-11 -7 -10 -9 3 -14 9 -4 13 -3 10 2 -3 5 3 12 12 14 13
3 14 5 3 6 -8 0 -21 -3 -28 -8z"/>
<path d="M2275 560 c-3 -5 -1 -10 4 -10 6 0 11 5 11 10 0 6 -2 10 -4 10 -3 0
-8 -4 -11 -10z"/>
<path d="M1101 544 c0 -11 3 -14 6 -6 3 7 2 16 -1 19 -3 4 -6 -2 -5 -13z"/>
<path d="M2328 553 c6 -2 18 -2 25 0 6 3 1 5 -13 5 -14 0 -19 -2 -12 -5z"/>
<path d="M3100 539 c-10 -18 -9 -19 14 -13 18 4 26 2 26 -7 0 -7 2 -10 5 -7 9
8 -5 36 -21 42 -7 3 -18 -4 -24 -15z"/>
<path d="M2400 546 c0 -9 40 -13 46 -5 3 5 -6 9 -20 9 -14 0 -26 -2 -26 -4z"/>
<path d="M2460 541 c0 -9 9 -10 172 -35 54 -8 101 -17 106 -19 4 -3 8 3 8 14
0 16 -8 19 -44 19 -26 0 -41 4 -37 10 3 6 1 10 -4 10 -6 0 -11 -4 -11 -10 0
-14 -44 -12 -115 5 -71 17 -75 18 -75 6z"/>
<path d="M0 530 c0 -5 14 -10 32 -10 36 0 35 4 -4 14 -17 4 -28 2 -28 -4z"/>
<path d="M918 528 c-6 -14 -20 -18 -60 -19 -67 -2 -117 -12 -102 -22 6 -3 44
-8 83 -9 l72 -3 -5 -28 c-3 -16 -2 -26 4 -22 12 7 23 65 18 96 -3 20 -4 21
-10 7z"/>
<path d="M1835 530 c-3 -6 1 -7 9 -4 18 7 21 14 7 14 -6 0 -13 -4 -16 -10z"/>
<path d="M750 520 c0 -11 14 -11 50 0 22 7 21 8 -12 9 -21 1 -38 -3 -38 -9z"/>
<path d="M2940 521 c0 -6 4 -13 10 -16 6 -3 7 1 4 9 -7 18 -14 21 -14 7z"/>
<path d="M1028 513 c-44 -2 -78 -8 -78 -14 0 -6 4 -8 8 -5 5 3 45 6 90 7 45 1
79 6 76 10 -3 5 -8 8 -12 7 -4 -1 -42 -4 -84 -5z"/>
<path d="M1454 511 c3 -5 15 -7 26 -4 28 7 25 13 -6 13 -14 0 -23 -4 -20 -9z"/>
<path d="M2915 510 c-3 -5 -1 -10 4 -10 6 0 11 5 11 10 0 6 -2 10 -4 10 -3 0
-8 -4 -11 -10z"/>
<path d="M1285 500 c-3 -6 1 -7 9 -4 18 7 21 14 7 14 -6 0 -13 -4 -16 -10z"/>
<path d="M1754 495 c-23 -17 -38 -19 -28 -4 4 8 0 8 -15 0 -16 -9 -21 -9 -21
1 0 7 -7 2 -16 -10 -8 -12 -18 -20 -22 -18 -4 2 -8 -15 -9 -37 -1 -23 1 -35 4
-27 23 60 34 82 39 77 3 -3 0 -15 -6 -27 -6 -11 -9 -26 -7 -33 2 -7 11 5 20
26 16 36 36 54 23 20 -6 -14 -3 -14 16 3 13 12 32 26 43 32 11 6 15 12 9 12
-5 0 -19 -7 -30 -15z"/>
<path d="M2816 494 c-4 -10 -1 -14 6 -12 15 5 23 28 10 28 -5 0 -13 -7 -16
-16z"/>
<path d="M3030 491 c-12 -24 -13 -34 -1 -27 9 6 22 46 15 46 -2 0 -8 -9 -14
-19z"/>
<path d="M1135 469 c-14 -5 -7 -8 28 -8 26 -1 47 -4 47 -8 0 -5 -30 -7 -67 -7
-38 1 -83 -3 -101 -8 -28 -8 -32 -11 -21 -24 9 -11 14 -12 19 -4 5 8 9 7 13
-4 4 -10 19 -16 39 -16 23 0 29 -3 19 -9 -16 -10 31 -27 107 -38 36 -5 42 -3
42 12 0 12 5 15 18 10 9 -4 28 -9 42 -11 l25 -4 -25 8 -24 8 36 22 c22 13 51
22 77 22 60 0 184 -20 199 -32 9 -8 12 -4 12 14 0 25 0 25 -127 32 -71 4 -141
13 -158 21 -26 12 -73 20 -160 30 -11 1 -29 -1 -40 -6z m148 -26 c-13 -2 -33
-2 -45 0 -13 2 -3 4 22 4 25 0 35 -2 23 -4z m-195 -38 c-3 -3 -9 2 -12 12 -6
14 -5 15 5 6 7 -7 10 -15 7 -18z m82 21 c0 -2 -13 -6 -30 -8 -16 -3 -30 -1
-30 4 0 4 14 8 30 8 17 0 30 -2 30 -4z m126 -43 c-6 -6 -36 9 -36 18 0 5 9 4
20 -3 10 -7 18 -14 16 -15z m-106 -3 c0 -5 -5 -10 -11 -10 -5 0 -7 5 -4 10 3
6 8 10 11 10 2 0 4 -4 4 -10z"/>
<path d="M2163 473 c9 -2 25 -2 35 0 9 3 1 5 -18 5 -19 0 -27 -2 -17 -5z"/>
<path d="M1008 463 c7 -3 16 -2 19 1 4 3 -2 6 -13 5 -11 0 -14 -3 -6 -6z"/>
<path d="M2303 464 c4 -4 13 -9 20 -10 18 -3 114 -21 192 -38 82 -16 285 -30
285 -19 0 4 -42 9 -93 11 -50 2 -146 14 -212 27 -166 33 -201 38 -192 29z"/>
<path d="M3151 444 c0 -11 3 -14 6 -6 3 7 2 16 -1 19 -3 4 -6 -2 -5 -13z"/>
<path d="M1448 443 c6 -2 18 -2 25 0 6 3 1 5 -13 5 -14 0 -19 -2 -12 -5z"/>
<path d="M760 430 c0 -11 21 -11 65 0 27 7 25 8 -17 9 -27 0 -48 -3 -48 -9z"/>
<path d="M796 412 c-4 -6 28 -24 74 -43 50 -21 80 -39 81 -48 0 -10 2 -11 5
-4 6 13 52 9 89 -8 33 -14 147 -41 195 -45 l45 -3 -40 9 c-22 6 -49 14 -60 19
-11 5 -33 13 -50 19 -133 42 -175 57 -175 63 0 4 10 5 23 3 12 -2 -3 5 -34 15
-74 25 -145 36 -153 23z"/>
<path d="M1413 393 c9 -2 23 -2 30 0 6 3 -1 5 -18 5 -16 0 -22 -2 -12 -5z"/>
<path d="M1388 373 c7 -3 16 -2 19 1 4 3 -2 6 -13 5 -11 0 -14 -3 -6 -6z"/>
<path d="M1617 279 c3 -35 7 -66 9 -68 9 -10 3 105 -5 118 -6 9 -7 -9 -4 -50z"/>
<path d="M1320 320 c54 -13 129 -22 104 -11 -11 5 -47 12 -80 15 -46 4 -51 3
-24 -4z"/>
<path d="M1468 323 c6 -2 18 -2 25 0 6 3 1 5 -13 5 -14 0 -19 -2 -12 -5z"/>
<path d="M998 303 c7 -3 16 -2 19 1 4 3 -2 6 -13 5 -11 0 -14 -3 -6 -6z"/>
<path d="M1690 300 c8 -5 22 -9 30 -9 10 0 8 3 -5 9 -27 12 -43 12 -25 0z"/>
<path d="M1578 283 c7 -3 16 -2 19 1 4 3 -2 6 -13 5 -11 0 -14 -3 -6 -6z"/>
<path d="M1290 260 c0 -5 9 -10 20 -10 11 0 20 5 20 10 0 6 -9 10 -20 10 -11
0 -20 -4 -20 -10z"/>
<path d="M1095 239 c-121 -10 -347 -25 -590 -38 -99 -5 -220 -15 -270 -20 -50
-6 -123 -11 -162 -11 l-73 0 0 -44 c0 -46 35 -126 55 -126 15 0 12 43 -3 48
-7 2 -10 8 -7 12 8 13 35 0 35 -16 0 -10 14 -14 43 -16 54 -1 60 -2 72 -10 6
-3 201 -5 435 -4 382 2 425 4 422 19 -1 8 2 18 8 22 5 3 10 -3 10 -14 0 -20
23 -28 70 -23 8 1 41 2 73 3 54 0 57 1 46 20 -13 24 -4 38 13 21 7 -7 20 -12
31 -12 10 0 15 -5 12 -11 -4 -6 -13 -8 -21 -5 -8 3 -14 1 -14 -4 0 -16 56 -11
70 5 7 9 10 18 7 22 -4 3 -2 12 4 20 6 7 8 13 3 13 -11 0 18 20 29 20 4 0 7
-9 7 -20 0 -11 -7 -20 -15 -20 -8 0 -15 -7 -15 -15 0 -20 26 -19 34 1 5 13 9
14 21 4 8 -7 15 -19 15 -27 0 -10 6 -13 16 -9 9 3 19 6 22 6 4 0 7 11 7 25 0
14 -4 25 -10 25 -5 0 4 8 20 19 21 13 35 16 48 9 12 -6 23 -5 32 2 11 9 18 8
30 -4 15 -15 14 -16 -16 -16 l-32 0 22 -19 c13 -11 19 -25 15 -35 -4 -11 -1
-16 10 -16 18 0 22 25 6 35 -16 10 -11 25 9 25 10 0 24 7 32 16 10 13 10 17
-2 25 -8 5 -23 9 -34 10 -43 3 -96 19 -91 28 2 3 -17 6 -42 6 -26 0 -52 4 -59
8 -6 5 -32 9 -58 10 -31 1 -44 6 -40 15 2 6 -2 12 -9 12 -7 0 -19 6 -26 14 -6
8 -17 13 -25 10 -7 -3 -16 -1 -20 5 -3 6 -16 10 -28 9 -12 0 -67 -5 -122 -9z
m80 -57 c-4 -4 -10 -1 -12 6 -3 6 -12 12 -21 12 -14 0 -14 2 -3 9 16 10 49
-15 36 -27z m-123 21 c-9 -3 -10 -9 -2 -18 7 -9 6 -16 -4 -24 -10 -8 -16 -9
-21 -1 -3 5 -18 10 -33 11 -26 1 -26 1 5 10 18 5 35 14 38 19 3 6 12 10 18 9
8 0 8 -2 -1 -6z m-89 -10 c-18 -2 -33 -9 -33 -15 0 -6 -8 -7 -17 -3 -33 13
-63 13 -63 -1 0 -7 -5 -16 -12 -20 -7 -4 -8 -3 -4 4 4 8 0 12 -11 12 -10 0
-25 5 -33 10 -11 7 -6 8 18 4 21 -4 32 -3 32 5 0 7 26 10 78 9 42 0 62 -3 45
-5z m257 -3 c0 -5 -4 -10 -10 -10 -5 0 -10 5 -10 10 0 6 5 10 10 10 6 0 10 -4
10 -10z m-117 -7 c-7 -2 -19 -2 -25 0 -7 3 -2 5 12 5 14 0 19 -2 13 -5z m42
-3 c3 -5 -1 -10 -9 -10 -9 0 -16 5 -16 10 0 6 4 10 9 10 6 0 13 -4 16 -10z
m-455 -4 c0 -2 -13 -6 -29 -8 -17 -2 -28 -1 -25 4 5 8 54 12 54 4z m210 -10
c0 -9 -30 -14 -35 -6 -4 6 3 10 14 10 12 0 21 -2 21 -4z m-195 -66 c9 0 12 -6
9 -15 -4 -8 -11 -12 -16 -9 -6 4 -15 0 -20 -7 -7 -10 -8 -7 -4 11 3 14 6 34 7
45 2 17 2 17 6 -2 2 -13 11 -23 18 -23z m102 18 c-3 -8 -6 -5 -6 6 -1 11 2 17
5 13 3 -3 4 -12 1 -19z m63 -9 c0 -5 -4 -9 -10 -9 -5 0 -10 7 -10 16 0 8 5 12
10 9 6 -3 10 -10 10 -16z m580 -3 c0 -3 -4 -8 -10 -11 -5 -3 -10 -1 -10 4 0 6
5 11 10 11 6 0 10 -2 10 -4z m-272 -75 c-15 -5 -18 3 -11 29 l7 25 6 -25 c3
-14 2 -27 -2 -29z m-923 9 c-3 -5 -16 -10 -28 -9 -21 0 -21 1 -2 9 28 12 37
12 30 0z"/>
<path d="M1505 240 c3 -5 18 -10 32 -10 32 0 28 5 -10 14 -19 4 -26 3 -22 -4z"/>
<path d="M1585 230 c-3 -5 1 -10 10 -10 9 0 13 5 10 10 -3 6 -8 10 -10 10 -2
0 -7 -4 -10 -10z"/>
<path d="M1512 93 c-8 -3 -4 -11 12 -24 32 -26 50 -25 34 1 -14 22 -27 29 -46
23z"/>
<path d="M2437 84 c-4 -4 -7 -14 -7 -23 0 -11 3 -12 11 -4 6 6 10 16 7 23 -2
6 -7 8 -11 4z"/>
<path d="M1650 58 c0 -19 2 -20 10 -8 13 19 13 30 0 30 -5 0 -10 -10 -10 -22z"/>
<path d="M2262 38 c-14 -14 -16 -38 -3 -38 8 0 23 41 17 47 -1 1 -8 -3 -14 -9z"/>
<path d="M2385 40 c-3 -5 -1 -10 4 -10 6 0 11 5 11 10 0 6 -2 10 -4 10 -3 0
-8 -4 -11 -10z"/>
<path d="M1405 30 c-3 -5 1 -10 10 -10 9 0 13 5 10 10 -3 6 -8 10 -10 10 -2 0
-7 -4 -10 -10z"/>
<path d="M2430 23 c0 -13 5 -23 10 -23 13 0 13 11 0 30 -8 12 -10 11 -10 -7z"/>
<path d="M0 10 c0 -5 5 -10 10 -10 6 0 10 5 10 10 0 6 -4 10 -10 10 -5 0 -10
-4 -10 -10z"/>
<path d="M2358 3 c7 -3 16 -2 19 1 4 3 -2 6 -13 5 -11 0 -14 -3 -6 -6z"/>
</g>
</svg>
